<?xml version="1.0" encoding="utf-8"?>
<!-- Generator: Adobe Illustrator 17.1.0, SVG Export Plug-In . SVG Version: 6.00 Build 0)  -->
<!DOCTYPE svg PUBLIC "-//W3C//DTD SVG 1.1//EN" "http://www.w3.org/Graphics/SVG/1.1/DTD/svg11.dtd">
<svg version="1.1" id="Layer_1" xmlns="http://www.w3.org/2000/svg" xmlns:xlink="http://www.w3.org/1999/xlink" x="0px" y="0px"
	 viewBox="0 0 552.6 464.9" enable-background="new 0 0 552.6 464.9" xml:space="preserve">
<g>
	<g>
		<polygon fill="#BBBCBC" points="132.3,449.2 126.6,451.6 126.3,452.8 126.2,453.1 126.3,453.2 128.2,455.7 128.5,456.1 
			128.5,456.2 140.6,450.9 		"/>
		<polygon fill="#BBBCBC" points="140.6,450.9 140.6,450.8 140.7,450.8 139.7,450.6 134.6,449.6 134,449.4 132.4,449.1 132.3,449.2 
					"/>
		<polygon fill="#6C6D6D" points="42.7,336.8 42.6,336.9 49.4,334 48.4,334.3 		"/>
		<polygon fill="#EDECEC" points="464.2,147.8 464.9,147.5 460.6,144.3 459.9,144.6 		"/>
		<polygon fill="#EDECEC" points="457,159.6 454.3,156 452.1,151.9 450.9,148.6 450.5,148.7 451.9,152.5 454.1,156.6 456.8,160.2 		
			"/>
		<polygon fill="#6C6D6D" points="40.2,334.4 40.1,334.6 52.4,329.2 50.7,329.8 		"/>
		<polygon fill="#6C6D6D" points="38,331.5 37.8,331.6 53.1,324.9 53.1,324.8 		"/>
		<polygon fill="#6C6D6D" points="38.6,312.6 34.8,314.3 34.8,314.3 38.3,312.8 		"/>
		<polygon fill="#6C6D6D" points="38,331.5 53.1,324.8 53.1,324.8 37.9,331.4 		"/>
		<polygon fill="#6C6D6D" points="36.1,327.9 36.2,328.1 51.3,321.4 51.3,321.3 		"/>
		<polygon fill="#6C6D6D" points="34,320.6 34.1,320.6 34.3,320.6 44.9,315.9 45.9,315.4 		"/>
		<polygon fill="#6C6D6D" points="36.2,312.1 36.2,312.1 38.1,311.2 38.2,311.1 		"/>
		<polygon fill="#BBBCBC" points="138.3,462.1 142.8,454.7 142.8,454.7 142.7,454.7 138.2,462.2 		"/>
		<polygon fill="#BBBCBC" points="132.5,464.7 138.2,462.2 142.7,454.7 130.5,460.1 130.5,460.1 131.2,464 		"/>
		
			<rect x="125.5" y="459.6" transform="matrix(0.9157 -0.4018 0.4018 0.9157 -174.0877 89.2278)" fill="#BBBCBC" width="0.3" height="0.2"/>
		<polygon fill="#010101" points="476.3,98.3 476.2,98.2 476.2,98.2 476.3,98.3 		"/>
		<polygon fill="#D1D3D4" points="73.1,292.1 30.3,286.7 18.9,291.7 53.2,300.3 53.2,300.3 53.6,300.4 55.7,300.9 57.2,301.3 
			57.5,301.3 57.9,301.4 59.5,301.8 61.7,302.4 62.1,302.5 68.1,304 73.8,305.4 75.9,305.9 76.3,306 76.7,306.1 101,295.5 
			74.7,292.3 		"/>
		<polygon fill="#6C6D6D" points="39.8,314.6 34.1,317.2 34.2,317.2 39.2,315 		"/>
		<g>
			<polygon fill="#BABABA" points="110.5,460.5 110.6,460.1 126.3,453.2 128.2,455.7 128.5,456.1 128.2,456.3 128,456.5 
				127.8,456.8 127.7,457.2 127.7,457.7 127.7,458 112,464.9 110.2,463.5 			"/>
			<polygon fill="#BABABA" points="185.9,429.3 185.9,429.7 185.7,431.1 184.2,431.8 150.2,446.7 148.6,447.4 140.7,450.8 
				139.7,450.6 134.6,449.6 184.1,427.9 			"/>
		</g>
		<polygon fill="#808285" points="492.9,120.4 490.6,116.7 488.7,112.4 487.4,107.9 486.8,103.4 486.9,99.3 487.6,95.8 489,93.2 
			491,91.7 496.4,90.7 498.7,90.3 504,89.5 509.3,88.9 514.6,88.4 519.8,88 525.1,87.8 530.4,87.7 535.6,87.7 540.8,87.9 
			544.6,88.2 544.9,88.2 545.3,88.2 546,88.3 546.7,88.4 547.4,88.6 548.1,88.7 548.8,88.9 549.5,89.1 549.8,89.2 550.4,89.4 
			551,89.7 551.5,89.9 552.1,90.2 552.6,90.5 552.4,91 552.1,91.6 552,91.7 551.7,92.3 551.4,92.9 551,93.4 550.6,94 550.2,94.5 
			549.7,95 549.2,95.5 548.7,96 548.4,96.3 548.2,96.5 547.7,97 544.8,99.3 544.2,99.9 540.8,102.5 540.8,102.5 540,103.2 
			535.7,106.4 531.3,109.5 526.8,112.5 522.2,115.4 517.6,118.1 512.8,120.8 508,123.3 503.2,125.7 500.8,126.1 498.2,125.3 
			495.4,123.4 		"/>
		<polygon fill="#777474" points="439.8,181.3 440,180.2 440,179.6 440.2,178 440.2,178 440.3,176.5 440.4,176.5 441.4,176.9 
			442.4,177.5 442.7,177.8 443,178.1 443.4,178.8 443.4,178.8 443.5,179.5 443.3,181 443.3,181.5 443.3,181.6 443.2,181.8 
			443.2,181.9 443.2,182.1 443.2,182.2 443.2,182.4 443.1,182.6 443.1,182.8 443.1,182.9 443,182.8 442.5,182.6 441.8,182.4 
			441.3,182.2 440.9,182.1 439.8,181.9 		"/>
		<polygon fill="#414042" points="244,266.1 239.1,271.4 238.4,271.8 237.9,272.6 238.2,272.5 238.7,272.3 239.1,272.1 239.5,272 
			239.7,271.9 239.8,271.8 239.9,271.8 252.2,266.4 252.3,266.4 252.5,266.3 252.8,266.1 253.3,265.9 253.9,265.7 254.5,265.4 
			255.2,265.1 255.5,264.9 246.5,261.6 244.4,262.7 		"/>
		<polygon fill="#808285" points="41.1,186.5 29.4,191.6 36.5,197.5 84.3,237.1 109.1,226.3 		"/>
		
			<rect x="172.6" y="39" transform="matrix(-0.9157 0.4018 -0.4018 -0.9157 346.5459 5.4613)" fill="#BBBCBC" width="0.3" height="0.2"/>
		<polygon fill="#6C6D6D" points="51.2,321.3 35.9,328 36,328 36.1,327.9 51.3,321.3 		"/>
		<polygon fill="#6C6D6D" points="57,265.2 55.3,266 55.5,265.9 57,265.2 		"/>
		<polygon fill="#6C6D6D" points="50,317.6 34.7,324.3 34.8,324.3 34.9,324.2 50,317.6 		"/>
		<g>
			<polygon fill="#BCBEC0" points="0,419 42.4,338.7 45.6,337.3 48,336.3 53,334.1 60.6,330.8 60.9,330.6 62.4,330 64.9,328.9 
				67,328 67.4,327.8 70.1,326.6 71.2,326.1 97.8,316.3 105.7,316.8 112.4,316.6 112.1,322.1 112.1,323.7 31.7,422.4 6.7,433.3 
				5.9,432.8 			"/>
			<polygon fill="#BCBEC0" points="31.3,199.8 36.5,197.5 84.3,237.1 84.2,237.5 81,250.2 68.3,256.4 66,258.1 65.9,258.1 
				65.4,258.3 64.6,258.9 59.6,260.2 58.7,260.8 57.8,261 48.1,267.8 21.5,220.5 			"/>
		</g>
		<g>
			<polygon fill="#D1D3D4" points="215.8,279.5 237.4,270.1 196.1,354 184.1,358.6 180.6,360.2 			"/>
			<polygon fill="#D1D3D4" points="225.6,89.5 251.3,143.9 250.7,143.7 229.6,152.9 209.7,96.4 			"/>
		</g>
		<g>
			<polygon fill="#BCBEC0" points="156.1,54.1 166.2,49.7 166.4,85.9 165.1,86.4 161.9,87.9 159.1,89.5 156.8,91.1 155.2,92.5 
				155,92.7 154.4,93.8 154.3,93.9 154.3,94.1 154.4,94.2 154.4,94.3 154.7,94.3 155.4,94.4 155.5,94.4 157.5,94 160.1,93.3 
				160.9,93 163.1,92.2 166.3,90.8 166.4,90.8 166.5,114.4 143.6,124.4 137.8,127.7 150.3,57.4 			"/>
			<polygon fill="#BCBEC0" points="108,394.5 108.7,394 113.7,391.2 136.4,381.3 130.9,406.4 129.2,407.1 126,408.7 123.2,410.3 
				120.9,411.8 119.3,413.3 119.1,413.5 118.5,414.6 118.4,414.7 118.4,414.9 118.5,415 118.5,415 118.8,415.1 119.5,415.2 
				119.6,415.2 121.6,414.8 124.2,414 125,413.7 127.2,412.9 129.8,411.9 121,451.9 111,456.3 110.2,456.7 110.1,457.7 105.2,460.5 
							"/>
		</g>
		<polygon fill="#2F2F2F" points="398.5,174.9 398.2,174.3 397.9,173.8 397.7,173.4 397.6,173.2 397.6,173.2 397.1,172.1 
			431.5,157.1 450.5,148.7 451.9,152.5 454.1,156.6 456.8,160.2 441.2,167 441.1,167 441,167.1 440.8,167.2 440.6,167.3 
			440.2,167.4 440.2,167.5 439.8,167.6 439.2,167.9 438.6,168.1 437.7,168.5 437.4,168.1 437.1,167.8 437.1,167.7 437,167.5 
			436.8,167.3 436.7,167.2 436.6,167 436.5,166.9 436.5,166.9 436.4,166.9 435,165 432.8,160.8 432.5,160 423.7,163.9 422.9,164.2 
			421.8,164.7 421.1,165 420.4,165.3 419.9,165.5 419.4,165.8 419.1,165.9 418.6,166.1 418.3,166.2 417.1,166.7 415.9,167.3 
			414.8,167.8 413.8,168.2 413.1,168.5 412.6,168.7 412.5,168.8 400.6,174 400.5,174 400.1,174.2 399.3,174.6 398.8,174.8 
			398.7,174.8 398.6,174.9 398.5,174.9 		"/>
		<polygon fill="#010101" points="285.4,239.5 285.1,239.7 287.7,248.8 293.1,234.5 		"/>
		<g>
			<polygon fill="#D1D3D4" points="111.2,324.5 111.3,323 111.5,317.4 111.5,317 111.8,316.9 113.8,315.9 125.8,309.7 145.6,300.7 
				148,299.6 154.9,296.5 152.6,307 151,307.6 151,307.6 150.9,307.6 150.8,307.5 150.8,307.6 150.7,307.6 144.3,311.9 142.5,313.6 
				142.5,313.6 142.2,314.1 142.2,314.1 142.1,314.5 142.1,314.5 142.2,314.5 142.2,314.5 142.2,314.5 142.3,314.5 142.4,314.5 
				142.5,314.5 142.6,314.5 142.7,314.5 142.7,314.4 143,314.4 143.3,314.3 143.7,314.1 145,313.7 151.7,310.9 139,369.7 
				138.8,369.7 138.8,369.7 138.8,369.7 138.8,369.7 132.3,374 130.6,375.7 130.6,375.8 130.2,376.2 130.2,376.3 130.2,376.6 
				130.2,376.7 130.2,376.7 130.2,376.7 130.3,376.7 130.3,376.7 130.4,376.7 130.5,376.7 130.6,376.6 130.7,376.6 130.8,376.6 
				131.1,376.5 131.4,376.4 131.8,376.3 133.1,375.8 138.1,373.8 136.9,379.2 136.9,379.2 136.9,379.3 136.7,380.2 136.4,381.3 
				113.7,391.2 108.7,394 108.5,393.9 			"/>
			<polygon fill="#D1D3D4" points="147,124.4 152.4,121.7 166.5,115.4 166.5,119.3 160.4,123.4 158.6,125.1 158.6,125.1 
				158.3,125.6 158.3,125.6 158.2,126 158.3,126 158.3,126 158.3,126 158.3,126 158.4,126 158.5,126 158.6,126 158.7,126 
				158.8,125.9 158.8,125.9 159.1,125.8 159.4,125.7 159.8,125.6 161.1,125.2 166.5,123 166.8,176 165.7,176.4 165.7,176.4 
				165.6,176.4 165.5,176.4 165.4,176.4 165.4,176.4 159,180.7 157.2,182.4 157.2,182.4 156.9,182.9 156.9,182.9 156.8,183.3 
				156.8,183.3 156.8,183.3 156.9,183.3 156.9,183.3 157,183.3 157.1,183.3 157.1,183.3 157.3,183.3 157.4,183.3 157.4,183.2 
				157.7,183.2 158,183 158.4,182.9 159.7,182.5 166.8,179.6 166.9,189.8 152.8,196 139.8,191.8 127.6,187.8 138.1,128.9 			"/>
		</g>
		<polygon fill="#BBBCBC" points="173.3,32.2 175.7,35.3 175.8,35.4 188,30 179.5,28.2 173.8,30.7 		"/>
		<polygon fill="#BBBCBC" points="188.1,30 188.1,30 179.5,28.2 179.5,28.2 188,30 		"/>
		<polygon fill="#A1A7A5" points="156.8,46.8 175.4,38.7 195.8,29.8 197.4,29.1 230.3,14.7 230.6,14.9 231.1,15.3 231.4,15.5 
			231.6,15.6 231.7,15.7 232.2,16.1 231.8,19.1 230,17.8 156.5,49.9 		"/>
		<polygon fill="#010101" points="440.4,175 440.4,175.2 440.5,175.3 441.6,175.6 442.5,176.2 443.2,176.8 443.6,177.5 443.6,178.2 
			443.5,179.5 443.5,179.5 443.3,181 443.4,180.9 444.6,180.3 445.4,179.4 445.6,178.7 445.5,178.2 445.1,177.4 445.1,177.4 
			444.2,176.6 442.9,175.8 441.2,175.2 		"/>
		<g>
			<path fill="#1A2533" d="M48.1,267.8l-4.2,2.9l0,0l0.7,0l0.9,0l2.1,0l1.7,0l2.6,0l1,0l1,0l2.9,0l1.9,0l1.7,0l0.4,0l3,0l-0.2-1.4
				l-0.1-0.3l0-3.7l0-0.5l0.7-2.9l0.2-0.7l1.1-1.8l0.5-0.9l-0.5,0.2l-0.8,0.6l-5,1.2l-0.9,0.6l-0.9,0.2L48.1,267.8z M57,265.2
				L57,265.2l-1.5,0.7l-0.2,0L57,265.2z"/>
			<polygon fill="#1A2533" points="49.4,334 48.4,334.3 42.7,336.8 42.5,336.8 40.1,334.6 52.4,329.2 50.7,329.8 40.2,334.4 
				40,334.5 37.8,331.6 53.1,324.9 53.1,324.8 53.1,324.8 37.9,331.4 37.8,331.5 36,328.1 36.2,328.1 51.3,321.4 51.3,321.3 
				51.2,321.3 35.9,328 34.7,324.4 34.9,324.3 50,317.7 50,317.6 50,317.6 34.7,324.3 34,320.7 34.3,320.6 34.3,320.6 44.9,315.9 
				45.9,315.4 34,320.6 34.1,317.3 34.2,317.2 39.2,315 39.8,314.6 34.1,317.2 34.7,314.3 34.8,314.3 38.3,312.8 38.6,312.6 
				34.8,314.3 36.1,312.1 36.2,312.1 38.1,311.2 38.2,311.1 36.2,312.1 37.9,310.7 38.6,310.4 53.2,300.3 53.2,300.3 53.6,300.4 
				55.7,300.9 57.2,301.3 57.5,301.3 57.9,301.4 59.5,301.8 59.1,303.6 59.1,304.1 59,307.8 59.1,308.1 59.9,312.4 59.9,312.6 
				61.5,317 63.7,321.1 63.8,321.3 66.4,324.7 66.6,325 69.2,327.5 66.6,328.6 66.2,328.8 64.1,329.7 61.6,330.8 60.1,331.5 
				59.8,331.6 52.1,334.9 47.2,337.1 44.8,338.1 42.6,336.9 			"/>
		</g>
		<polygon fill="#BBBCBC" points="125.8,459.5 125.8,459.7 127.9,458.7 131.5,457.2 131.5,457 127.9,458.6 		"/>
		<polygon fill="#BBBCBC" points="131.5,457 131.5,457.2 140.7,453.1 140.7,453 		"/>
		<g>
			<polygon fill="#414042" points="245.8,130.5 245.4,129.5 245,128.7 244.6,127.9 244.3,127.3 244.1,126.8 243.9,126.5 
				243.9,126.4 261,124.7 261.9,124.8 262.2,125.1 261.8,125.7 260.8,126.6 259.2,127.6 257.2,128.8 254.8,130 252.3,131.2 
				247.2,133.4 246.2,131.4 			"/>
			<polygon fill="#414042" points="247.3,118.9 246.7,119.5 242.3,123.1 242.3,123.1 242.2,122.9 242.1,122.6 241.9,122.2 
				241.7,121.8 241.4,121.2 241.2,120.7 240.9,120.1 240.7,119.6 242.1,119 243.5,118.5 244.9,118.2 246,118 246.9,118 247.4,118.1 
				247.6,118.4 			"/>
			<polygon fill="#808285" points="209.6,330.4 209.5,330.4 209.5,330.4 209.6,330.5 209.6,330.5 209.7,330.5 209.8,330.4 
				209.8,330.4 209.8,330.5 209.8,330.5 209.7,330.5 209.7,330.6 209.7,330.6 209.7,330.6 209.7,330.6 209.6,330.6 209.6,330.7 
				209.6,330.7 209.6,330.7 209.3,330.8 209.6,330.3 209.6,330.4 			"/>
			<polygon fill="#58595B" points="206.7,336.2 211.6,334 211.6,334 211.4,333.8 211.3,333.9 211,334 206.9,335.8 208.7,332 
				209.2,331 209.2,331 210,331.4 210.7,331.8 212.7,330.9 212,330.6 212.2,329.8 210.6,330.3 210.6,330.3 210.5,330.3 210.5,330.3 
				210.5,330.3 210.4,330.3 210.4,330.3 210.3,330.3 210.2,330.3 210.2,330.3 210.2,330.2 210.3,330.2 210.4,330.2 210.4,330.2 
				210.4,330.2 210.3,330.1 210.3,330.1 210.3,330.1 210.3,330 210.3,330 210.2,330 210.1,330.1 210.1,330.1 210,330.1 209.9,330.2 
				209.8,330.2 209.7,330.2 209.6,330.3 209.6,330.3 209.6,330.3 210.7,327.9 210.8,327.8 211.8,325.8 212,325.3 212.4,324.5 
				212.8,323.7 213.1,323.1 213.3,322.7 213.5,322.4 213.5,322.3 213.5,322.2 214.3,320.7 214.6,320.1 215.3,318.7 215.9,317.4 
				216.8,315.5 218.7,314.7 220.2,314.1 221.7,313.6 223.1,313.2 224.2,313.1 225.1,313 225.6,313.2 225.8,313.5 225.5,314 
				224.9,314.6 216.9,321.1 216.8,322 219.1,321.8 236.2,320.1 236.2,320.1 236.7,320.1 237.4,320 238.3,319.9 239.2,319.8 
				240.1,319.9 240.4,320.2 240,320.8 239.5,321.3 239,321.7 238.9,321.7 238.5,322 238.3,322.1 237.4,322.7 235.4,323.9 233,325.1 
				230.5,326.2 221.8,330.1 221.4,330.2 220.8,329.7 220.5,329.8 219.8,330.2 217.6,331.1 218,331.7 215,333 214.8,332.3 
				214.5,332.5 214.1,332 212.1,332.8 212.6,333.3 213.2,333.8 206.4,336.8 			"/>
		</g>
		<polygon fill="#BBBCBC" points="187.5,32.7 187.4,32.6 187.4,32.5 178.5,36.4 178.6,36.6 		"/>
		<polygon fill="#BBBCBC" points="178.6,36.6 178.5,36.4 175,38 172.8,38.9 172.9,39.1 175.1,38.1 		"/>
		<g>
			<polygon fill="#747474" points="207.5,425.2 207.2,424.8 206.9,424.3 206.7,423.7 206.6,423.2 206.6,422.7 206.7,422.3 
				206.9,421.9 207.2,421.7 208.4,421.3 208.4,421.3 209.7,421 210.8,420.9 211.7,421 212.4,421.2 212.8,421.7 212.9,422.3 
				212.6,423 212,423.7 211.2,424.5 210.1,425.2 210.1,425.2 209,425.8 208.6,425.8 208.3,425.8 207.9,425.5 			"/>
			<polygon fill="#747474" points="254.3,4 254,3.5 253.8,3 253.7,2.5 253.7,2 253.8,1.5 254,1.2 254.3,1 255.5,0.6 256.7,0.3 
				256.9,0.2 258,0.1 258.9,0.2 259.5,0.5 259.9,1 260,1.5 259.7,2.2 259.2,2.9 258.4,3.6 258.2,3.8 257.2,4.4 256,5 255.7,5.1 
				255.3,5 255,4.8 254.6,4.5 			"/>
		</g>
		<g>
			<path fill="#808285" d="M150.9,450.5l0.4,0.2l0.4,0.1l0.3-0.1l47.1-20.6l0,0l4.9-2.1l0,0l0,0l4.9-2.1l-0.3,0.1l-0.4-0.1l-0.4-0.2
				l-0.4-0.3l-0.3-0.4l-0.3-0.5l-0.2-0.5l-0.1-0.5l0-0.5l0.1-0.4l0.2-0.3l0.3-0.2l-4.9,2.1l0,0l0,0l-4.9,2.2l0,0l-11.6,5.1l-1.5,0.7
				l-34,14.9l-0.3,0.2l-0.2,0.3l-0.1,0.4l0,0.5l0.1,0.5l0.2,0.5l0.3,0.5l0.3,0.4L150.9,450.5z M202,426.3l-4.2,1.8l-2.1,0.9l0-0.1
				l2.1-0.9l4.2-1.8L202,426.3z"/>
			<path fill="#808285" d="M197.3,29l0.1,0.1l32.9-14.4l0.3,0.2l0.4,0.3l0.3,0.2l0.2,0.2l0.1,0.1l14.4-6.3l0,0l5-2.2l0.1,0l0,0
				L256,5l-0.3,0.1L255.3,5L255,4.8l-0.4-0.3L254.3,4L254,3.5L253.8,3l-0.1-0.5l0-0.5l0.1-0.4l0.2-0.3l0.3-0.2l-4.9,2.1l0,0l-0.1,0
				l-5,2.2l0,0l-47,20.6l-0.3,0.2l-0.2,0.3l-0.1,0.4l0,0.5l0.1,0.5l0.2,0.5L197.3,29z M249.1,5.7L249.1,5.7l-4,1.8L243,8.4l0,0
				l0-0.1l2.1-0.9L249.1,5.7L249.1,5.7z"/>
		</g>
		<g>
			<polygon fill="#939292" points="148.9,450.8 148.6,450.4 148.3,449.9 148.1,449.4 148,448.8 148,448.3 148.1,447.9 148.3,447.6 
				148.6,447.4 150.2,446.7 149.9,446.9 149.7,447.2 149.6,447.6 149.6,448.1 149.7,448.7 149.9,449.2 150.2,449.7 150.5,450.1 
				150.9,450.5 151.2,450.7 151.6,450.8 151.9,450.7 150.4,451.4 150,451.5 149.7,451.4 149.3,451.2 			"/>
			<polygon fill="#939292" points="195.4,29.1 195.2,28.6 195.1,28.1 195.1,27.6 195.2,27.1 195.4,26.8 195.7,26.6 197.3,25.9 
				197,26.1 196.8,26.5 196.7,26.9 196.7,27.4 196.8,27.9 197,28.5 197.3,29 197.4,29.1 195.8,29.8 195.7,29.6 			"/>
		</g>
		<polygon fill="#6C6D6D" points="34.9,324.2 34.9,324.3 50,317.7 50,317.6 		"/>
		<polygon fill="#010101" points="475.3,106.4 475.3,106.7 475.6,106.8 476,106.8 476,106.7 475.8,106.5 475.7,106.3 475.5,106.1 
			475.5,106.1 		"/>
		<g>
			<polygon fill="#989898" points="448.7,101 448.9,100.9 450.1,100.2 451.5,99.6 453.2,99.1 454.8,98.7 455,98.7 456.6,98.5 
				457.9,98.4 458.9,98.6 459.1,98.6 459.7,98.9 459.8,98.9 459.8,99 459.8,99 459.8,99 459.7,99 459.7,99 459.6,99 459.5,99.1 
				459.4,99.1 459.4,99.1 458.8,99.2 458.5,99.3 457.3,99.6 455.9,100 454.6,100.3 454.3,100.4 452.6,100.8 451,101.2 449.6,101.5 
				448.6,101.8 448.5,101.8 448.3,101.9 447.7,102 447.7,102 447.6,102.1 447.6,102.1 447.9,101.7 			"/>
			<polygon fill="#989898" points="444.8,127.9 444.7,127.8 444.7,127.7 444.7,127.7 444.6,127.5 444.6,127.4 444.6,127.4 
				444.7,127.2 445,126.6 445.1,126.5 445.8,125.9 446.9,125.2 447,125.1 448.5,124.3 450.1,123.6 451.8,123.1 453.3,122.7 
				454.8,122.5 456,122.5 456.7,122.7 456.8,122.7 456.9,122.9 457,123 457.1,123 457.1,123.1 457.1,123.1 457.1,123.2 457.1,123.3 
				457.2,123.4 457.2,123.6 457.1,123.7 456.8,124.3 456.1,124.8 455.9,125 455.7,125.2 454.8,125.8 453.4,126.5 451.8,127.2 
				450.1,127.7 448.5,128.1 448.3,128.1 448.2,128.1 446.9,128.3 445.8,128.3 445.3,128.1 445,128 445,128 444.9,128 			"/>
			<polygon fill="#989898" points="479.1,138 479.1,138 479.1,138 479.1,138 479.1,137.9 479.1,137.9 479.1,137.9 479.2,137.8 
				479.2,137.7 479.3,137.7 479.3,137.7 479.4,137.7 479.4,137.7 477.9,136.8 477.9,136.8 477.9,136.8 477.9,136.8 477.9,136.7 
				477.9,136.7 478,136.7 478,136.7 478,136.7 479.1,136.2 479.2,136.2 479.2,136.2 479.2,136.2 479.2,136.2 479.2,136.2 
				479.2,136.2 479.3,136.2 479.3,136.2 479.3,136.2 479.3,136.1 479.3,136.1 479.3,136.1 479.4,136.1 479.4,136.1 480.2,137.2 
				480.2,137.2 480.2,137.2 480.2,137.2 480.7,137 480.6,137.1 480.6,137.1 480.6,137.1 480.6,137.2 480.6,137.3 480.6,137.3 
				480.7,137.4 480.7,137.4 480.7,137.5 480.8,137.5 480.8,137.5 480.9,137.5 479.9,137.9 479.7,138 479.7,138 479.5,138.1 
				479.4,138.1 479.3,138.1 479.2,138.1 479.2,138 479.2,138 479.1,138 			"/>
		</g>
		<g>
			<polygon fill="#C3BBCF" points="424.2,178.5 424.2,178.3 424.2,178.3 424.1,178.3 424.1,178.2 424.1,178.1 424.1,178 
				424.1,177.8 424.1,177.8 424.2,177.4 424.2,177.1 424.2,177.1 424.6,176.7 424.6,176.5 425.3,177 425.7,177.2 426.3,177.2 
				426.7,177.1 427,177.2 427.4,177.2 427.9,177.1 428.5,176.8 429,176.3 429.5,175.8 429.8,175.2 430.1,174.6 430.2,174 
				430.2,173.5 430.1,173 429.9,172.8 429.9,172.4 429.7,171.9 429.5,171.7 429.6,171.7 429.7,171.6 429.9,171.6 430.6,172.3 
				430.7,172.3 430.7,172.5 430.7,172.7 430.4,175 430.4,175.2 430.3,175.5 430.2,175.7 430.1,175.9 430,176.1 429.8,176.3 
				429.7,176.5 429.5,176.7 429.3,176.9 429.1,177 428.9,177.2 428.8,177.3 425.4,178.7 425.2,178.8 425,178.8 424.9,178.9 
				424.7,178.8 424.6,178.8 424.4,178.7 424.3,178.6 			"/>
			<polygon fill="#C3BBCF" points="393.7,177.5 393.7,177.2 393.7,176.9 393.7,176.4 393.7,175.9 393.7,175.3 393.7,174.8 
				393.8,174.3 394.1,174.3 394.1,174.3 396,174.4 396,174.8 396,174.9 396,175.4 396,175.4 395.9,176 395.9,176 395.9,176.5 
				395.9,176.7 395.9,177 395.9,177.2 395.9,177.3 396,177.6 396,177.7 396,177.7 393.9,177.6 393.8,177.6 			"/>
			<polygon fill="#C3BBCF" points="421.1,166.5 421.1,166.7 421,166.8 421,167 420.9,167.3 420.9,167.4 420.7,167.9 420.6,168.1 
				420.4,168.4 420.1,168.9 419.7,169.4 419.5,169.6 419.3,169.8 418.9,170.1 418.8,170.2 418.6,170.3 418.3,170.5 418.3,170.5 
				418,170.6 417.3,170.8 417.3,170.8 417.3,170.8 417.4,170.8 417.9,170.5 418.2,170.3 418.5,170 419.1,169.6 419.2,169.4 
				419.8,168.7 420.3,167.9 420.4,167.8 420.7,167.1 420.9,166.8 421,166.3 421.1,165.8 421.1,165.7 421.1,165.7 421.1,165.7 			"/>
		</g>
		<g>
			<polygon fill="#4FA44D" points="21.7,188.7 21.5,188.5 21.5,188.2 21.5,187.8 21.5,187.7 21.6,187.4 21.9,187 22.2,186.8 
				22.3,186.6 22.5,186.6 22.5,186.6 22.6,186.6 22.5,186.7 22.4,187 22.4,187.3 22.5,187.7 22.6,188 22.7,188.3 23,188.6 
				23.2,188.8 23.4,188.9 23.7,189 23.9,189 23.4,189.1 23.2,189.1 22.8,189.2 22.4,189.1 22,189 22,188.9 			"/>
			<polygon fill="#4FA44D" points="10,291.1 10,290.7 10,290.7 10.1,290.6 10.3,290.5 10.6,290.4 10.8,290.3 10.9,290.3 11,290.3 
				11.1,290.6 11.3,291 11.5,291.2 11.7,291.5 11.9,291.6 12.2,291.6 12.4,291.6 11.9,291.7 11.9,291.8 11.4,291.8 11,291.8 
				10.6,291.6 10.2,291.4 			"/>
		</g>
		<g>
			<polygon fill="#A0252A" points="19,186.1 18.9,185.8 18.9,185.5 19,185.2 19.1,185.1 19.3,184.7 19.5,184.5 19.7,184.4 
				19.8,184.3 19.8,184.3 19.8,184.3 19.8,184.5 19.7,184.7 19.7,185.1 19.8,185.4 19.9,185.7 20,186.1 20.3,186.3 20.5,186.5 
				20.7,186.7 21,186.7 21.2,186.7 20.8,186.8 20.6,186.8 20.2,186.9 19.8,186.8 19.7,186.7 19.4,186.6 19.2,186.4 			"/>
			<polygon fill="#A0252A" points="7.5,290.6 7.6,290.6 7.6,290.5 7.5,290.5 7.4,290.3 7.3,290.3 7.2,289.9 7.3,289.6 7.3,289.4 
				7.4,289.4 7.5,289.5 7.5,289.5 7.7,289.5 7.7,289.5 8,289.6 8.1,289.6 8.2,289.9 8.4,290.2 8.6,290.5 8.8,290.7 9.1,290.9 
				9.3,290.9 9.5,290.9 9.1,291 9.1,291 8.6,291 8.2,291 7.8,290.8 			"/>
			<polygon fill="#A0252A" points="291.3,162.6 291.7,163.2 291.6,163 291.4,162.8 291.2,162.5 291.1,162.5 291.1,162.3 
				291.1,162.3 291.1,162.3 291.1,162.2 291.1,162.1 291.1,161.8 291.2,161.6 291.2,161.6 291.4,161.3 291.6,161.1 291.6,161.1 
				291.8,160.9 292,160.8 292.2,160.7 292.3,160.7 292.4,160.7 293.1,161 293.2,161 293.3,161.1 293.3,161.1 293.5,161.1 
				293.5,161.2 293.5,161.3 293.6,161.5 293.6,161.7 293.5,162 293.4,162.4 293.4,162.4 293.3,162.7 293.1,163 293,163.2 
				292.9,163.3 292.7,163.5 292.7,163.5 292.6,163.5 292.4,163.6 292.1,163.5 291.9,163.4 291.7,163.2 			"/>
		</g>
		<g>
			<polygon fill="#E7E7E7" points="96.3,317.1 95.8,317 90.8,316.7 82.6,316.1 78.9,315.8 73.8,315.5 104.5,303.3 104.5,308 
				104.7,312.8 104.9,317.7 96.9,317.1 			"/>
			<path fill="#E7E7E7" d="M109.8,460l16.5-7.2l0.3-1.1l5.7-2.5l0.1,0l1.6,0.3l50.2-21.9l0.4-3.3L159.7,435l-2.2,1l-14.8,6.5
				l41.5-83.9l-3.6,1.6l35.3-80.7l21.5-9.4l-0.7-0.5l4.9-5.3l-7.3,3.4l0,0l0,0l-7.3,3.2l-7.3,3.1l-7.3,3l-5.9,2.2l-8.6,3.3l-7.2,2.6
				l-7.2,2.7l-21.3,6.2l-7.1,1.9l-45.2,19.8l-5,2.2l6.7-0.3l0-0.4l0.2-0.1l2.1-1.1l-2.3,0.9l-0.3-0.2l14.5-7.1l19.9-8.7l2.5-1.1
				l6.8-3.1l-2.3,10.5l0.4-0.1l4-1.2l3.2-0.5l0,0l0,0l0,0l0,0l0,0l-0.1,0.5l0,0l0,0l-0.1,0l-0.1,0l0,0L160,306l-0.2,0.1l-0.3,0.2
				l-0.3,0.2l-0.4,0.2l-0.5,0.3l-0.7,0.4l-0.1,0l-2.6,1.3l-1.1,0.6l-1.8,0.9l0,0.1l0,0.1l-0.1,0.6L139,369.7l1.9-0.6l4-1.2l3.2-0.5
				l0,0l0,0l0,0l0,0l0,0l-0.1,0.5l0,0l0,0l-0.1,0l-0.1,0l0,0l-0.2,0.1l-0.2,0.1l-0.3,0.2l-0.3,0.2l-0.4,0.2l-0.5,0.3l-0.7,0.4
				l-0.1,0l-2.6,1.3l-1.1,0.6l-1.9,0.9l0,0l-0.1-0.1l0,0l-0.6,0.3l-0.6,0.2l0,0.1l-0.2,0.9l-1.2,5.4l2.4-1.1l0.2-0.5l0.7-0.8
				l1.1-0.8l1.3-0.8l1.5-0.7l3.2-1.4l-0.3,0.2l-0.2,0.3l-0.1,0.4l0,0.5l0.1,0.5l0.2,0.5l0.3,0.5l0.2,0.3l-3.2,1.4l-1.3,0.5l-1.3,0.4
				l-0.8,0.2l-0.5,0.1l-1,0l0,0l-0.3-0.4l0-0.1l0.1-0.2l-2.3,1l-0.1,0l-0.2,1l-0.2,1l-5.5,25.2l1.3-0.5l0.4-0.2l3-0.9l2.1-0.5
				l0.5-0.1l0.9,0l0.5,0.1l0.1,0.2l-0.2,0.4l-0.6,0.6l-0.9,0.8l-0.6,0.4l-1.9,1.2l-2.9,1.5l-2.7,1.3l0,0.1l-0.1,0.3l-0.2,0.7l0,0.1
				l-8.7,40.1l-10.1,4.4l-0.8,0.3l-0.1,1l-0.2,1.4L109.8,460z M168.7,367.1l-0.2-0.3l-0.3-0.5l-0.2-0.5l-0.1-0.5l0-0.5l0.1-0.4
				l0.2-0.3l0.3-0.2l4.7-2.1l1.4-0.5l0.1,0l1.5-0.4l1.3-0.2l1.1,0l0.6,0.2l-0.1,0l-0.3,0.1l0.1,0.1l0,0.1l-0.4,0.7l-0.1,0.1
				l-1.1,0.9l-0.5,0.3l-0.8,0.5l-1.3,0.7l-1.3,0.6L168.7,367.1z M145.1,423.5l2.4-5.4l-0.2-0.3l-0.1-0.9l0.1-1l0.4-1.1l0.6-1.1
				l0.8-1l0.9-0.9l0.4-0.3l2.4-5.4l3.5,0.2l-2.2,5.1l0.4,0.7l0.1,0.9l-0.1,1L154,415l-0.6,1.1l-0.8,1l-0.9,0.9l-0.9,0.6l-2.2,5.1
				L145.1,423.5z"/>
			<polygon fill="#E7E7E7" points="28,287 27.3,287.4 27.2,287.5 25.1,288.6 25,288.6 24.9,288.6 22.6,289.7 17.5,292 16.9,292.2 
				15.8,292.6 15.8,292.6 14.7,293 13.7,293.1 12.9,293.2 12.4,293.1 12.1,292.8 12.1,292.4 12.4,291.9 12.9,291.4 12.9,291.4 
				13.1,291.3 13.1,291.3 13.5,291.1 13.5,291.1 13.7,291 13.7,291 13.9,291.1 14.2,291.1 14.5,291.2 14.7,291.3 15.3,291.4 
				15.7,291.5 15.8,291.5 16,291.6 21.5,289.2 23.9,288.2 26.1,287.3 27.3,286.9 27.7,286.8 28.4,286.7 28.4,286.7 			"/>
			<polygon fill="#E7E7E7" points="166.8,179.5 166.8,179.3 166.8,178.8 168.4,178.1 169.5,177.5 172.1,176.2 172.2,176.2 
				172.9,175.8 173.4,175.5 173.8,175.3 174.2,175.1 174.5,174.9 174.7,174.8 174.8,174.7 174.9,174.7 174.9,174.6 175,174.6 
				175,174.5 175,174.5 175.1,174 175.1,174 175,174 175,174 174.9,174 174.9,174 171.7,174.5 167.7,175.7 166.8,176 166.5,123 
				166.5,122.2 166.5,122.1 166.8,122 166.9,122 167.6,121.7 167.6,121.7 167.6,121.7 167.6,121.7 169.6,120.8 170.7,120.2 
				173.3,118.9 173.4,118.9 174.1,118.5 174.6,118.2 175,118 175.4,117.8 175.6,117.6 175.8,117.5 176,117.4 176,117.3 176.1,117.3 
				176.1,117.3 176.2,117.2 176.2,117.2 176.2,116.7 176.2,116.7 176.2,116.7 176.2,116.7 176.1,116.7 176.1,116.7 172.9,117.2 
				168.9,118.4 166.9,119.1 166.9,119.1 166.9,119.1 166.8,119.1 166.8,119.1 166.5,119.3 166.5,115.4 166.5,114.5 166.6,114.4 
				168.9,113.4 168.9,113.4 169.1,113.6 169.2,113.7 170,113.7 170.2,113.7 171,113.5 171.9,113.3 172.2,113.2 172.7,113 
				173.4,112.8 174,112.5 173.8,112.2 177,110.8 176.7,110.3 176.5,109.8 176.4,109.3 176.4,108.8 176.5,108.4 176.7,108.1 
				177,107.9 198.2,98.6 197.9,98.8 197.7,99.1 197.6,99.5 197.6,100 197.7,100.5 197.9,101.1 198.2,101.6 202.9,99.5 203.1,99.8 
				203.8,99.5 203.9,99.4 204.4,99.3 204.8,99.2 206.2,98.6 206.3,98.6 207.7,97.9 208.2,97.6 208.8,97.2 209.5,96.6 209.5,96.5 
				209.5,96.5 209.6,96.5 209.7,96.4 229.6,152.9 250.7,143.7 251.3,143.9 252.3,144.2 254.8,145.1 247.6,148.1 247.6,148.1 
				247.6,148.1 240.3,151.3 233,154.5 225.6,157.9 219.7,160.9 211,165.1 203.6,168.9 196.3,172.6 174.2,185.4 166.9,189.8 
				166.8,179.6 			"/>
			<polygon fill="#E7E7E7" points="244,266.1 241.5,264.2 244.4,262.7 			"/>
			<polygon fill="#E7E7E7" points="384.9,159 385,160.5 371.3,173.4 371.2,171.2 			"/>
			<path fill="#E7E7E7" d="M162.8,204.1l3.8-1.9l0.3-0.1l-73.4-23.8l-42.5-13.8l-36,15.8l0.8,0.7l0.3,0.2l-1.6,0.7l-0.2,0.1
				l-0.1,0.2l-0.1,0.3l0,0.3l0.1,0.3l0.1,0.3l0.2,0.3l0.2,0.3l0.2,0.2l0.2,0.1l0.2,0l0.2,0l2.9-1.3l0.7,0.6l0.7,0.6l0,0l0,0l0.1,0.1
				l0,0l0.2,0.1l0.2,0.2l0.3,0.2l0,0l8-3.5l0.4-0.2l0.2-0.1l0.6-0.3l0.7-0.3l0.9-0.3l1.1-0.4l0.5-0.2l0.7-0.2l1.1-0.2l0.1,0l0.3,0.2
				l-0.1,0.3l-0.2,0.2l-1.2,0.8l-1.7,0.9l-2.1,1l-7.7,3.4l0,0l0,0l0.4,0.3l0,0l0,0l0.1,0.1l0.2,0.2l0.2,0.2l0.3,0.2l0,0l9.1-4
				l0.4-0.2l0.2-0.1l0.7-0.3l0.8-0.3l1-0.4l1.3-0.5l0.6-0.2l0.8-0.2l1.3-0.3l0.1,0l0.3,0.2l-0.2,0.3l-0.3,0.2l-1.4,0.9l-2,1.1
				l-2.4,1.1l-8.9,3.9l0,0l0,0l1.2,1l-0.1,0l-1,0.6l-0.8,0.6l-0.1,0.1l-0.5,0.5l-0.3,0.5l0,0.4l0.3,0.3l0.5,0.1l0.8,0l0.1,0l1-0.2
				L27,192l1.1-0.4l0.3-0.1l0.5,0.4l0.5-0.2l11.8-5.2l68,39.8l0.4,0.2l-25.3,11.1L81,250.2l4.2-2l2.7-1.3l18.9-10.7l0.4-0.8l0.1-0.2
				l0.5-0.7l0.3-0.4l0.5-0.6l0.6-0.7l0.4-0.4l1.1-1.1l0.2-0.2l1-1l19.8-10l28.1-14.5L162.8,204.1z M33.1,187.5L33.1,187.5l-0.2,0.1
				L33.1,187.5z M18.4,181.3l-0.2,0.1L18.4,181.3L18.4,181.3z"/>
			<polygon fill="#E7E7E7" points="12.2,286.6 11.6,287 11.4,287.1 9.6,288 9.6,288.1 9.5,288.1 7.4,289.1 6.8,289.3 3.6,290.7 
				3.4,290.7 3.2,290.7 2.9,290.6 2.7,290.4 2.5,290.1 2.3,289.8 2.2,289.4 2.1,289.1 2.1,288.8 2.2,288.5 2.3,288.3 2.5,288.2 
				3.1,287.9 3.1,287.9 3.1,288.1 3.2,288.3 3.2,288.4 3.5,288.5 4,288.6 4.1,288.6 4.6,288.7 4.7,288.8 5.2,288.9 5.4,288.9 
				6.3,288.5 8.4,287.6 10.4,286.9 11.5,286.5 11.8,286.4 12.5,286.3 12.5,286.4 			"/>
			<polygon fill="#E7E7E7" points="239.1,271.4 238.4,271.8 238.7,271.1 			"/>
		</g>
		<g>
			<polygon fill="#414042" points="253.7,301.9 253.4,301.4 253.2,300.8 253.2,300.6 252.9,300.6 252.8,300.7 252.5,300.8 
				252.5,300.5 252.5,300.3 252.3,300.3 252.2,300.3 254,297.5 253.9,297.3 253.7,297 253.8,296.7 256.7,292 256.9,291.8 
				257.2,291.8 257.6,291.8 260.5,287.1 260.4,287 260.3,286.6 260.3,286.3 262.9,282.2 262.5,281.5 262.3,281 262.2,280.3 
				262.3,279.6 262.4,279.3 257.7,272.8 257.2,272.8 256.9,272.7 256.7,272.5 252.2,266.4 252.3,266.4 252.5,266.3 252.8,266.1 
				253.3,265.9 253.9,265.7 254.5,265.4 255.2,265.1 255.5,264.9 255.8,264.8 256.3,264.6 256.8,264.4 257.1,264.3 257.2,264.2 
				261.1,269.5 261.2,269.8 261,270.2 261,270.4 266,277.3 266.7,277.4 267.3,277.7 267.7,278.2 269.7,281.9 270,282.4 270.1,283.1 
				270,283.8 269.7,284.4 269.2,285 268.5,285.5 267.8,285.9 267.1,286.1 266.8,286.1 264.8,289.1 264.7,289.3 264.3,289.4 
				264,289.3 261.1,294 261.2,294.2 261.3,294.5 261.3,294.8 258.3,299.5 258.1,299.7 257.8,299.7 257.5,299.7 255.8,302.3 
				255.6,302.6 255.4,302.8 255.1,303 254.8,302.9 254.4,302.7 254.1,302.4 			"/>
			<polygon fill="#414042" points="246.9,303.1 246.8,302.8 246.8,302.8 241.2,287.3 241.1,287.3 240.7,287.4 240.6,287.4 
				236.4,275.9 236.5,275.7 236.5,275.5 236.7,275.1 236.8,275 237,274.6 237.2,274.2 237.5,273.6 237.8,273 237.9,272.6 
				238.2,272.5 238.7,272.3 239.1,272.1 239.5,272 239.7,271.9 239.8,271.8 239.9,271.8 240.5,273.6 240.6,273.6 241,273.6 
				241.2,273.6 245.5,285.5 245.5,285.6 245.4,285.7 245,285.9 245,285.9 250.5,301 250.5,301 250.4,301.1 250.4,301.1 250.2,301.3 
				249.9,301.5 249.8,301.5 249.5,301.9 249,302.2 248.9,302.3 248.6,302.6 248.2,303 247.8,303.2 247.4,303.2 247.1,303.2 
				247.1,303.1 			"/>
			<polygon fill="#BCBEC0" points="433.4,174.6 432.8,174.1 432.4,173.7 430.9,172.5 430.6,172.3 429.9,171.6 429.5,171.3 
				429.1,170.9 429,170.8 428.9,170.8 428.8,170.7 428.8,170.7 421.8,164.7 422.9,164.2 423.7,163.9 430,169.4 430,169.4 
				430.1,169.4 430.2,169.6 430.4,169.7 430.6,169.8 431.5,170.6 431.7,170.8 432,171 432.2,171.3 432.3,171.3 432.7,171.5 
				433.1,171.7 433.6,171.9 434,172.2 434.1,172.2 434.6,172.4 435.2,172.7 435.8,173 436.3,173.3 436.8,173.5 437,173.6 438,174.1 
				438.1,174.1 440.3,176 440.2,176.7 438.1,175.1 438.1,175.1 438.1,175.2 434.5,175.6 434.5,175.6 			"/>
		</g>
		<g>
			<polygon fill="#484949" points="396,174.4 394.1,174.3 394.1,174 394.1,173.9 394.1,173.9 395.3,174 396.1,174 396.1,174.2 			
				"/>
			<polygon fill="#484949" points="384.6,177.6 385.1,177.3 385.1,177.5 385.1,177.6 385.2,177.7 390.7,177.9 393.8,178 393.8,178 
				393.9,177.8 393.9,177.6 396,177.7 396,178 396.1,178.1 398.8,178.3 398.9,178.2 398.9,178 399,177.8 400.4,177.9 400.4,177.9 
				400.5,177.7 400.5,177.4 400.6,177.2 405.6,177.4 405.5,178.8 405,182.2 405,182.2 404.3,182.2 394.4,181.6 377.7,180.6 			"/>
			<polygon fill="#484949" points="400.7,174.3 405.9,174.7 405.9,174.7 400.7,174.5 			"/>
		</g>
		<g>
			<polygon fill="#A0CADD" points="316,159.4 315.6,157.5 315.1,157.2 314.6,156.8 314.6,153.8 315.2,151.3 315.8,150.5 
				316.4,149.9 317.1,148.8 317.2,148.7 320,146.6 320.9,146 323.2,144.3 323.9,143.8 325.2,142.8 329,140.1 331.5,138.3 
				332.8,137.4 335.1,135.9 337.5,134.3 338.7,133.6 342.5,131.1 342.9,130.8 344.6,129.8 346.7,128.6 348.3,127.6 351,126.1 
				353,124.9 354.2,124.2 367.3,117.8 377.9,113.5 382.7,111.9 383.9,111.6 383.4,112 382,112.9 381.6,113.7 380.7,115.2 
				380.4,116.5 380,118.4 380,119.9 379.9,122.2 380.2,123.7 380.6,126.3 380.9,127.6 381.8,130.5 382.3,131.5 383.6,134.4 
				384,135.1 385.8,137.9 388.3,140.7 388.3,140.7 388.4,140.8 390.8,142.5 391,142.6 391,142.7 391.1,142.8 391.1,142.8 391,142.9 
				391,143 390.9,143.1 390.9,143.1 390.8,143.2 390.6,143.3 390.5,143.4 390.3,143.4 390.2,143.5 387.5,144.4 387.2,144.6 
				385.3,145.3 380.6,147.1 376.7,148.7 373.1,150.1 373.1,150.1 368.2,151.7 362.1,153.9 359.7,154.6 350.8,157.4 348.9,157.9 
				347,158.5 338.3,160.1 334,160.7 331.7,160.5 328.3,160.7 325.9,161 325.3,161.2 324.7,161.1 319.6,160.8 319.5,160.5 
				316.4,159.5 			"/>
			<polygon fill="#A0CADD" points="388.8,136.9 388.4,136.3 386.6,133.5 386.5,133.1 384.8,129.5 384.8,129.5 384.7,128.9 
				383.7,125.6 383.6,125.4 383.1,121.8 383.1,121.3 383.1,118.1 383.1,117.6 383.8,114.8 383.8,114.4 385,112.2 385.1,112 
				386.7,110.8 387,110.6 387,110.6 393,109.5 424.7,108.4 426,108.3 426.6,108.4 426.8,108.4 426.8,108.4 426.6,108.4 425.6,109.2 
				425.5,109.3 424.6,110.6 424.5,110.8 423.9,112.6 423.5,114.8 423.4,115 423.4,115.3 423.3,117.6 423.5,120 423.5,120.3 
				423.7,120.6 424.1,122.8 424.8,124.8 424.9,125.1 424.9,125.1 424.7,125.5 423.9,127 423.1,127.7 420.6,129.2 419.1,130.1 
				417.9,131.2 409.5,135.5 406.7,136.9 406.4,137 404.8,137.7 399.5,140.2 398.4,140.6 396.5,141.2 395,141.8 394.7,141.9 
				393.9,141.6 392.9,140.9 391.3,139.7 389.3,137.5 			"/>
		</g>
		<g>
			<polygon fill="#CFD0D0" points="11.3,291 11.1,290.6 11,290.3 11.5,290.5 12.1,290.6 12.2,290.6 21.4,286.7 23.7,285.7 
				25.9,284.8 27.1,284.4 27.5,284.3 28.2,284.2 28.3,284.2 27.9,284.5 27.2,284.9 27,285 24.9,286.1 24.9,286.1 24.8,286.1 
				22.4,287.2 13.7,291 13.7,291 13.5,291.1 13.5,291.1 13.1,291.3 13.1,291.3 12.9,291.4 12.9,291.4 12.4,291.6 12.2,291.6 
				11.9,291.6 11.7,291.5 11.5,291.2 			"/>
			<polygon fill="#CFD0D0" points="8.6,290.5 8.4,290.2 8.2,289.9 8.1,289.6 8.5,289.7 8.6,289.7 9.2,289.9 9.4,289.9 17.3,286.4 
				19.4,285.6 21.4,284.8 22.5,284.4 22.8,284.3 23.5,284.2 23.5,284.3 23.2,284.6 22.6,284.9 22.4,285 20.6,286 20.6,286 20.5,286 
				18.4,287 10.8,290.3 10.6,290.4 10.3,290.5 10.1,290.6 10,290.7 9.5,290.9 9.3,290.9 9.1,290.9 8.8,290.7 			"/>
			<polygon fill="#CFD0D0" points="22.7,188.3 22.6,188 22.5,187.7 22.4,187.3 22.4,187 22.5,186.7 22.6,186.6 22.6,186.7 
				22.8,186.8 23.1,187 23.4,187.3 23.4,187.3 32.5,183.3 32.9,183.1 33.1,183 33.1,183 33.9,182.7 34.7,182.4 35.6,182 36.9,181.6 
				37.4,181.4 38.2,181.2 39.5,180.9 39.6,180.9 39.9,181 39.7,181.4 39.4,181.6 38,182.5 36.1,183.5 33.7,184.6 24.8,188.5 
				24.8,188.5 24.9,188.5 23.9,189 23.7,189 23.4,188.9 23.2,188.8 23,188.6 			"/>
			<polygon fill="#CFD0D0" points="34.9,180.1 33.7,180.9 31.9,181.9 29.8,182.8 22.1,186.2 22.1,186.2 22.1,186.3 21.2,186.7 
				21,186.7 20.7,186.7 20.5,186.5 20.3,186.3 20,186.1 19.9,185.7 19.8,185.4 19.7,185.1 19.7,184.7 19.8,184.5 19.8,184.3 
				19.9,184.4 19.9,184.4 20.1,184.6 20.4,184.8 20.6,185 20.6,185 28.6,181.5 29,181.4 29.2,181.3 29.2,181.3 29.8,181 30.6,180.7 
				31.4,180.4 32.5,180 33,179.9 33.7,179.7 34.9,179.5 34.9,179.4 35.2,179.6 35.1,179.9 			"/>
			<polygon fill="#CFD0D0" points="450.4,146.6 450.4,146.6 450.4,146.6 450.4,146.6 450.4,146.2 450.3,144.6 450.3,144.6 
				450.3,144.5 450.3,144.5 450.3,144.4 450.3,144.4 450.3,144.4 450.3,144.3 450.3,144.3 450.4,144.3 450.4,144.3 450.5,144.2 
				450.6,144.2 450.6,144.2 450.7,144.3 450.7,144.3 450.8,144.3 450.8,144.3 450.8,144.4 450.8,144.4 450.8,144.4 450.8,144.5 
				450.8,144.5 450.8,144.6 450.7,146 450.7,146.6 450.7,146.6 450.7,146.6 450.7,146.6 450.7,146.6 450.6,146.7 450.6,146.7 
				450.6,146.7 450.6,146.7 450.6,146.7 450.6,146.7 450.6,146.7 450.5,146.7 450.5,146.7 450.5,146.7 450.5,146.7 450.5,146.7 
				450.5,146.7 450.5,146.6 450.4,146.6 			"/>
		</g>
		<g>
			<polygon fill="#808285" points="438.3,174 438,174.1 437,173.6 437,173.6 437.6,173.5 438.3,173.4 438.5,173.5 438.9,173.8 
				440.2,174.8 440.3,174.9 440.4,175 440.4,175 440.4,175 440.4,175 440.4,175 440.4,175.2 440.3,176.5 440.3,176.5 440.2,178 
				440.2,178 440,179.6 440,180.2 440.4,175.6 			"/>
			<path fill="#808285" d="M424.8,180.7l0.6-1.2l2.8,2l1.6,1.2l0.4,0.3l0.1,0.1l0.1,0l0,0l0.1,0l0.1-0.1l0.1-0.1l0,0l0.2-0.1l0,0
				l2.3-0.7l0.1,0l2.6-0.3l1.2,0l1.6,0.1l1.1,0.2l0,0l0.1-0.6l0.1-1.1l0,0l0.3-3.5l0,0l-2.1-1.5l0,0l0,0l-3.6,0.4l0,0l-0.7,0.1
				l-1.3-0.9l0.9-0.1l-0.6-0.5l-0.4-0.3l-1.4-1.2l-0.3-0.3l0,0l0,0.2l0,0.2l-0.3,2.3l0,0.2l-0.1,0.2l-0.1,0.2l-0.1,0.2l-0.1,0.2
				l-0.1,0.2l-0.2,0.2l-0.2,0.2l-0.2,0.2l-0.2,0.1l-0.2,0.1l-0.2,0.1l-3.4,1.5l-0.2,0.1l-0.2,0l-0.2,0l-0.2,0l-0.1,0l-0.1-0.1
				l0.8,0.6l-0.4,0.8L424.8,180.7z M434.4,181.4l0.2-0.1l0.2-0.1l0.2-0.1l0.2-0.2l0.2-0.2l0.2-0.2l0.1-0.2l0.1-0.2l0.1-0.2l0.1-0.2
				l0.1-0.2l0-0.2l-0.2,1.6L434.4,181.4z"/>
		</g>
		<g>
			<polygon fill="#808285" points="308.2,156.6 309,153.1 313,151.4 316.6,147.8 322.1,144.8 323.2,144.3 320.9,146 320,146.6 
				317.2,148.7 317.1,148.8 316.4,149.9 315.8,150.5 315.2,151.3 314.6,153.8 314.6,156.8 315.1,157.2 315.6,157.5 316,159.4 
				316.4,159.5 319.5,160.5 319.6,160.8 324.7,161.1 325.3,161.2 325.9,161 328.3,160.7 331.7,160.5 334,160.7 338.3,160.1 
				347,158.5 348.9,157.9 350.8,157.4 359.7,154.6 362.1,153.9 368.2,151.7 373.1,150.1 373.1,150.1 376.7,148.7 380.6,147.1 
				385.3,145.3 387.2,144.6 387.5,144.4 390.2,143.5 390.3,143.4 390.5,143.4 390.6,143.3 390.8,143.2 390.9,143.1 390.9,143.1 
				391,143 391,142.9 391.1,142.8 391.1,142.8 391,142.7 391,142.6 390.8,142.5 388.4,140.8 388.4,140.7 388.3,140.7 388.3,140.7 
				385.8,137.9 384,135.1 383.6,134.4 382.3,131.5 381.8,130.5 380.9,127.6 380.6,126.3 380.2,123.7 379.9,122.2 380,119.9 
				380,118.4 380.4,116.5 380.7,115.2 381.6,113.7 382,112.9 383.4,112 383.9,111.6 385.4,111.1 384.2,112 383.5,112.5 382.6,114.1 
				382.2,114.8 381.7,117.1 381.5,118 381.5,120.7 381.4,121.7 381.9,124.6 382,125.8 382.8,128.5 383.3,130 384.3,132.3 385.1,134 
				386.1,135.7 387.3,137.5 388.8,139.2 389.8,140.2 390.6,140.8 392.4,142.1 393.2,142.4 393.4,142.9 393.4,143.2 393.3,143.6 
				393.2,143.9 393,144.3 392.9,144.6 392.7,144.9 392.4,145.2 392.2,145.4 391.9,145.7 391.6,145.9 391.3,146.1 391,146.3 
				390.7,146.4 388.7,147.1 369.2,153.3 349.7,159.3 339.6,162.3 330.2,164.9 323,166.7 319.8,165.5 315,162.5 312.1,159 
				308.2,160.7 			"/>
			<polygon fill="#808285" points="289.3,166 289.1,165.8 289.1,165.8 289,165.6 289,165.5 289,165.4 289,165.3 289.1,164.7 
				289.2,164.5 289.3,164.3 289.9,163.4 290.8,162.5 291.1,162.3 291.1,162.3 291.1,162.3 291.1,162.3 291.1,162.5 291.2,162.5 
				291.4,162.8 291.6,163 291.7,163.2 291.7,163.2 291.9,163.4 292.1,163.5 292.4,163.6 292.6,163.5 292.7,163.5 292.7,163.5 
				292.9,163.3 293,163.2 293.1,163 293.3,162.7 293.4,162.4 293.4,162.4 293.5,162 293.6,161.7 293.6,161.5 293.5,161.3 
				293.5,161.2 293.5,161.1 293.3,161.1 293.3,161.1 293.2,161 293.1,161 293.6,160.8 295.1,160.2 296.5,159.9 296.9,159.8 
				298.2,159.8 299.1,159.9 299.2,159.9 299.3,160.1 299.4,160.3 299.4,160.5 299.3,160.6 299.3,160.8 299.3,161.1 299.2,161.4 
				298.9,161.9 298.9,161.9 298.1,162.9 297.5,163.3 297,163.8 295.7,164.7 294.3,165.4 292.9,165.9 291.6,166.3 290.5,166.4 
				290.5,166.4 289.9,166.3 289.6,166.3 			"/>
		</g>
		<g>
			<polygon fill="#808285" points="385.1,177.6 385.1,177.5 385.1,177.3 385.3,177.2 386.3,176.8 387.4,176.3 388.7,175.7 
				390.1,175.1 391.4,174.6 392.6,174 393.6,173.6 393.8,173.5 394.1,173.4 394.1,173.5 394.1,173.9 394.1,173.9 394.1,174 
				394.1,174.3 394.1,174.3 394.1,174.2 394.1,173.9 394,173.6 394,173.5 393.9,173.5 393.9,173.6 393.9,173.7 393.8,173.8 
				393.8,173.9 393.8,174.2 393.8,174.3 393.7,174.8 393.7,175.3 393.7,175.9 393.7,176.4 393.7,176.9 393.7,177.2 393.7,177.5 
				393.8,177.6 393.9,177.6 393.9,177.8 393.8,178 393.8,178 390.7,177.9 385.2,177.7 			"/>
			<polygon fill="#808285" points="421.1,165.7 421.1,165.8 421,166.3 420.9,166.8 420.7,167.1 420.4,167.8 420.3,167.9 
				419.8,168.7 419.2,169.4 419.1,169.6 418.5,170 418.2,170.3 417.9,170.5 417.4,170.8 417.3,170.8 417.3,170.8 416.5,171 
				415.8,171 415.2,170.8 414.1,170 413.8,169.6 413.2,169.4 412.5,168.8 412.6,168.7 413.1,168.5 413.8,168.2 414.8,167.8 
				415.9,167.3 417.1,166.7 418.3,166.2 418.6,166.1 419.1,165.9 419.4,165.8 419.9,165.5 420.4,165.3 421.1,165 421.1,165.7 			"/>
			<polygon fill="#808285" points="396,177.7 396,177.7 396,177.6 395.9,177.3 395.9,177.2 395.9,177 395.9,176.7 395.9,176.5 
				395.9,176 395.9,176 396,175.4 396,175.4 396,174.9 396,174.8 396,174.4 396.1,174.2 396.1,174 396.1,173.7 396.2,173.4 
				396.3,173.2 396.3,173.1 397.6,173.2 397.6,173.2 397.7,173.4 397.9,173.8 398.2,174.3 398.5,174.9 398.5,174.9 398.6,174.9 
				398.7,174.8 398.8,174.8 399.3,174.6 400.1,174.2 400.5,174 400.6,174 400.7,174.1 400.7,174.3 400.7,174.5 405.9,174.7 
				405.9,174.7 421.8,175.4 421.9,175.2 421.9,174.9 422,174.8 422,174.8 424,174.8 424,174.9 424,174.8 424,174.7 418.3,170.5 
				418.3,170.5 418.6,170.3 418.8,170.2 418.9,170.1 419.3,169.8 419.5,169.6 419.7,169.4 420.1,168.9 420.4,168.4 420.6,168.1 
				420.7,167.9 420.9,167.4 420.9,167.3 421,167 421,166.8 421.1,166.7 426.8,170.9 426.9,170.9 427.5,170.7 428.1,170.7 
				428.6,170.9 428.6,170.9 428.6,170.9 428.7,171 428.8,171.1 428.9,171.2 429.3,171.5 429.5,171.6 429.5,171.7 429.7,171.9 
				429.9,172.4 429.9,172.8 429.9,172.9 429.9,173.1 429.8,173.2 429.7,173.7 429.7,173.9 429.6,174.2 429.4,174.7 429.3,174.8 
				428.9,175.4 428.4,175.9 428.3,176.1 427.9,176.4 427.7,176.6 427.5,176.7 427.1,177 427,177 426.8,177.1 426.7,177.1 
				426.3,177.2 425.7,177.2 425.3,177 424.6,176.5 424.5,176.4 424.4,176.3 424.2,176 424.1,175.9 424,175.6 424,175.5 424,175.4 
				424,175.3 424,175.3 423.9,175.3 423.9,175.3 423.9,175.4 423.8,175.6 423.8,175.9 423.7,176.2 423.7,176.6 423.7,177 
				423.7,177.4 423.7,177.8 423.7,178 423.7,178.2 423.8,178.3 423.9,178.3 423.9,178.6 423.8,178.7 423.8,178.7 421.8,178.7 
				421.8,178.5 421.7,178.3 421.7,178 405.7,177.4 405.6,177.4 400.6,177.2 400.5,177.4 400.5,177.7 400.4,177.9 400.4,177.9 
				399,177.8 398.9,178 398.9,178.2 398.8,178.3 396.1,178.1 396,178 			"/>
		</g>
		<g>
			<polygon fill="#F1F2F2" points="13.3,183.9 13.2,183.6 13.3,183.2 13.4,182.9 13.4,182.8 13.6,182.5 13.9,182.2 14,182.1 
				14.4,181.9 14.2,182 14.1,182.2 14,182.5 14,182.8 14.1,183.1 14.2,183.5 14.4,183.8 14.6,184.1 14.8,184.3 15.1,184.4 
				15.3,184.5 15.5,184.4 15.1,184.5 14.9,184.6 14.5,184.6 14.1,184.5 14,184.5 13.7,184.3 13.5,184.1 			"/>
			<polygon fill="#F1F2F2" points="1.6,290.4 1.4,290.1 1.3,289.8 1.4,289.4 1.5,289 1.8,288.7 2.1,288.4 2.1,288.4 2.5,288.2 
				2.3,288.3 2.2,288.5 2.1,288.8 2.1,289.1 2.2,289.4 2.3,289.8 2.5,290.1 2.7,290.4 2.9,290.6 3.2,290.7 3.4,290.7 3.6,290.7 
				3.2,290.8 3.2,290.8 2.7,290.9 2.3,290.8 1.9,290.7 			"/>
			<polygon fill="#F1F2F2" points="480.7,137.4 480.6,137.3 480.6,137.3 480.6,137.2 480.6,137.1 480.6,137.1 480.6,137.1 
				480.7,137 481,136.9 481.3,136.8 481.5,136.7 481.8,136.6 482,136.6 482,136.6 482.1,136.6 482.1,136.6 482.2,136.7 482.2,136.7 
				482.2,136.7 482.1,136.8 482.1,136.8 481.9,137 481.7,137.1 481.5,137.2 481.2,137.4 480.9,137.5 480.8,137.5 480.8,137.5 
				480.7,137.5 480.7,137.4 			"/>
			<polygon fill="#F1F2F2" points="449.3,144 449.3,143.9 449.3,143.8 449.5,143.6 449.7,143.5 450,143.4 450.3,143.4 450.6,143.4 
				450.9,143.4 451.2,143.5 451.5,143.6 451.7,143.7 451.8,143.9 451.8,144 451.8,144.1 451.7,144.2 451.6,144.4 451.4,144.5 
				451.1,144.6 450.8,144.6 450.8,144.5 450.8,144.5 450.8,144.4 450.8,144.4 450.8,144.4 450.8,144.3 450.8,144.3 450.7,144.3 
				450.7,144.3 450.6,144.2 450.6,144.2 450.5,144.2 450.4,144.3 450.4,144.3 450.3,144.3 450.3,144.3 450.3,144.4 450.3,144.4 
				450.3,144.4 450.3,144.5 450.3,144.5 450.3,144.6 450.3,144.6 450.1,144.6 449.8,144.5 449.6,144.4 449.4,144.3 449.3,144.2 			
				"/>
			<polygon fill="#F1F2F2" points="28.4,285.7 28.5,285.5 28.8,285.3 29.2,285.1 29.7,284.8 30.3,284.6 30.9,284.3 31.5,284.1 
				32,283.9 32.5,283.8 32.8,283.7 33,283.7 33,283.8 32.6,285.1 32.5,285.2 32.3,285.3 32,285.5 31.6,285.7 31.1,285.9 30.7,286.1 
				30.2,286.3 29.8,286.4 29.4,286.5 29.2,286.6 29,286.6 28.4,285.7 			"/>
		</g>
		<g>
			<path fill="#D1D3D4" d="M3.2,288.4l0.4,0.1l0.5,0.1l0,0l0.6,0.1l0.1,0l0.5,0.1l0.2,0l0.9-0.4l2.1-0.9l1.9-0.7l1.1-0.4l0.3-0.1
				l0.6-0.1l0,0.1l-0.3,0.3l-0.6,0.4l-0.2,0.1L9.6,288l0,0l-2.2,1l-0.5,0.2l0.5,0.1l0,0l0.1,0l0,0l0.1,0l0.1,0l0.3,0.1l0.1,0
				l0.4,0.1l0.1,0l0.6,0.1l0.2,0l8-3.5l2.1-0.9l1.9-0.7l1.1-0.4l0.3-0.1l0.6-0.1l0,0.1l-0.3,0.3l-0.6,0.4l-0.2,0.1l-1.8,0.9l0,0
				l-2.2,1l-7.6,3.3l0.1,0l0,0l0.5,0.1l0.6,0.1l0.2,0l9.1-4l2.4-1l2.2-0.8l1.2-0.4l0.4-0.1l0.7-0.1l0,0.1l-0.4,0.3l-0.7,0.4L27,285
				l-2.1,1l0,0l-2.5,1.1l-8.7,3.8l0.2,0l0.3,0.1l0.3,0.1l0.2,0.1l0.6,0.1l0.5,0.1l0.1,0l0.2,0l5.5-2.4l2.4-1l2.2-0.8l1.2-0.4
				l0.4-0.1l0.7-0.1l0,0.1L28,287l-0.7,0.4l-0.2,0.1l-2.1,1l0,0l-2.5,1.1l-5.1,2.2l0.6,0.1l0.9-0.4l11.4-5l42.8,5.3l1.6,0.2
				l26.3,3.3l-24.2,10.6l-0.5-0.1l-0.4-0.1l-2.1-0.5l-5.7-1.4l-6-1.5l-0.4-0.1l-2.2-0.6l-0.4,1.7l0,0.5l0,3.7l0.1,0.3l0.8,4.3
				l0.1,0.2l1.6,4.4l2.2,4.2l0.1,0.2l2.6,3.4l0.2,0.3l2.7,2.4l1.2-0.5l0.3-0.4l25.6-9.5l-0.6,0l-4.9-0.4l-8.2-0.6l-3.8-0.3l-5.1-0.4
				l30.6-12.2l0.1,4.8l0.1,4.8l0.2,4.8l5-2.2l45.2-19.8l7.1-1.9l21.3-6.2l7.2-2.7l7.2-2.6l8.6-3.3l5.9-2.2l7.3-3l7.3-3.1l7.3-3.2
				l0,0l0,0l7.3-3.4l2.9-1.5l2.1-1.1l9,3.3l0.3-0.1l0.5-0.2l0.4-0.2l0.3-0.1l0.1-0.1l27.8-12.1l2.3-1l-0.3-1l-3.1-9.6l0.9-0.5
				l0.3-0.2l0.4-0.2l7.6-5l0.7-0.4l6.3-4.1l14.5-10.2l14.4-10.8l14.3-11.3l5.2-4.4l1.6-1.4l4.8-4.1l2.5-2.1l4.6-4.1l9.3-8.3
				l13.6-14.4l0.1,1.5l3-3l-2.2,0.7l-0.9,0.3l-2.1,0.7l-2.1,0.8l-1.5,0.5l-1.6,0.6l-3,1.1l-0.8,0.3l-2.7,1l-2.6,1l-4.8,1.8l-3.9,1.4
				l-2.7,1l-10.6,4L343,174l-7.2,2.8l-7.1,2.8l-5.7,2.2l-8.7,3.5l-4.8,1.9l-9.7,3.9l-9.9,4l-4.7,1.9l-0.2,3.5l-14.5,2l2.2-1
				l-2.1,0.8l-0.9,0.3l-7.8,2.8l-0.7,0.3l-5.3,1.8l-6.3,2.2l-8.1,2.8l-0.3,0.1l0,0l-5,1.6l-2.5,0.8l-0.6,0.2l-5.6,1.7l-1.5,0.4
				l-1.1,0.3l-4.4,1.3l-2.1,0.6l-2.1,0.5l-5.7,1.5l-0.7,0.2l-5.6,1.4l-1.1,0.3l-1.2,0.3l-2.7,0.7l-3.9,1l-3.8,1.1l-3.6,1l-7.3,2.3
				l-1.7,0.6l-12.5,4.5l-3.2,1.2l-3.6,1.3l-0.1,0l-1.1,0.4l-5.6,2.2l-2.2,1l-9.7,4.3l-1.7,0.7l-4.6,1.9l-8.6,3.4l-1.1-0.4l15.6-9.7
				l12.9-7.8l6.1-3.7l0.3-0.2l0.6-0.4l3-1.7l15.2-8.9l3.4-1.9l7.5-4.3l2-1.1l5.7-3.2l0.6-0.4l1.4-0.8l7.2-4l2.4-1.3l4.2-2.4l4-2.2
				l3-1.6l1.2-0.7l0.6-0.3l2.3-1.2l3.9-2.1l1.1-0.6l1-0.5l-0.8-0.4l-2.4-1.2l0.2-0.2l0.2-0.2l0.2-0.2l0.2-0.2l0.2-0.2l0.2-0.2
				l0.2-0.1l0,0l0.2-0.2l0.2-0.2l0.2-0.2l0,0l0,0l0,0l0,0l0,0l0.4,0.1l0.2,0.1l3.3,0.9l0.9,0.3l2.4-1.3l0.6-0.3l4.7-2.5l3-1.6
				l10-5.3l1.2-0.6l3.9-2l4.5-2.3l10.5-5.4l0.7-0.4l0.1-0.1l9.4-4.5l4.7-2.3l5.2-2.5l1.7-0.8l7.8-3.6l4.8-2.2l3.2-1.5l6.7-2.9
				l2.5-1.1l1.1-0.5l0.7-0.5l1.4-1l3.7-2.7l2.5-1.8l1.3-1l2.3-1.5l2.4-1.6l1.1-0.7l3.9-2.5l0.4-0.2l1.7-1l2.1-1.2l1.6-0.9l2.7-1.6
				l2-1.1l-1.6,0l-13.1,0.6l-13.4,1.4l-13.6,2.1l-13.8,2.9l-14,3.6l-14.2,4.4l-14.4,5.1l-7.3,3l0,0l0,0l-7.3,3.1l-7.3,3.3l-7.3,3.4
				l-6,2.9l-8.7,4.3l-7.3,3.8l-7.3,3.7l-22.1,12.8l-7.3,4.4l-14.1,6.2l-13-4.2l-12.3-4L94,176.9l-42.5-13.8l-36,15.8l-0.5,1.3
				l36-15.8l42.5,13.8l73.4,23.8l-0.3,0.1l-3.8,1.9l-3.1,1.6l-28.1,14.5l-19.8,10l-1,1l-0.2,0.2l-1.1,1.1l-0.4,0.4l-0.6,0.7
				l-0.5,0.6l-0.3,0.4l-0.5,0.7l-0.1,0.2l-0.4,0.8l-18.9,10.7l-2.7,1.3l-4.2,2l-12.7,6.2l-2.3,1.7l0,0l-0.5,0.9l-1.1,1.8l-0.2,0.7
				l-0.7,2.9l0,0.5l0,3.7l0.1,0.3l0.2,1.4l-3,0l-0.4,0l-1.7,0l-1.9,0l-2.9,0l-1,0l-1,0l-2.6,0l-1.7,0l-2.1,0l-0.9,0l-0.7,0l0,0
				l-4.9,0.1L3,286.5l0.1,1.4l0,0l0,0.1L3.2,288.4L3.2,288.4z M79.2,270.2l-0.4,0l0.6-2L79.2,270.2z M29.7,284.8l0.6-0.3l0.6-0.3
				l0.6-0.2l0.5-0.2l0.5-0.1l0.3-0.1l0.2,0l0,0.1l-0.4,1.3l-0.1,0.1l-0.2,0.2l-0.3,0.2l-0.4,0.2l-0.5,0.2l-0.5,0.2l-0.5,0.2
				l-0.4,0.1l-0.4,0.1l-0.3,0l-0.1,0l-0.6-0.8l0-0.1l0.1-0.1l0.3-0.2l0.4-0.2L29.7,284.8z"/>
			<polygon fill="#FFFFFF" points="239.1,271.4 238.7,271.1 237.4,270.1 236.6,269.6 241.5,264.2 244,266.1 			"/>
		</g>
		<g>
			<polygon fill="#848384" points="142.2,314.1 142.2,314.1 142.5,313.6 144.3,311.9 144.3,311.9 150.7,307.6 150.7,307.6 
				150.7,307.7 150.5,309 150.5,309 150.5,309.1 150.6,309.2 150.6,309.3 150.7,309.4 150.8,309.5 150.9,309.6 151,309.7 
				151.1,309.8 151.2,309.9 151.4,310 151.5,310.1 151.9,310.4 151.7,310.9 145,313.7 143.7,314.1 143.3,314.3 143,314.4 
				142.7,314.4 142.7,314.5 142.6,314.5 142.5,314.5 142.4,314.5 142.3,314.5 142.2,314.5 142.2,314.5 142.2,314.5 142.1,314.5 
				142.1,314.5 			"/>
			<path fill="#848384" d="M130.2,376.6L130.2,376.6L130.2,376.6L130.2,376.6L130.2,376.6l0.2,0l0.1,0l0.1,0l0.1,0l0.1,0l0.1,0
				l0.3-0.1l0.3-0.1l0.4-0.1l1.3-0.4l5-2l0.2-0.9l0-0.1l0.6-0.2l0.6-0.3l0,0l0.1,0.1l0,0l1.9-0.9l1.1-0.6l2.6-1.3l0.1,0l0.7-0.4
				l0.5-0.3l0.4-0.2l0.3-0.2l0.3-0.2l0.2-0.1l0.2-0.1l0,0l0.1,0l0.1,0l0,0l0,0l0.1-0.5l0,0l0,0l0,0l-0.1,0l-3.2,0.5l-4,1.2l-1.9,0.6
				l-0.1,0l0,0l0,0l0,0l0,0.1l-0.1,1.3l0,0.1l0,0.1l0,0.1l0.1,0.1l0.1,0.1l0.1,0.1l0.1,0.1l0.1,0.1l-0.1-0.1l-0.1-0.1l-0.1-0.1
				l-0.1-0.1l-0.1-0.1l0-0.1l0-0.1l0-0.1l0.1-1.3l0-0.1l0,0l-6.4,4.3l0,0l-1.7,1.7l-0.3,0.5l0,0L130.2,376.6z M139.5,372.3l-0.1-0.1
				l-0.1-0.1l0,0l0.1,0.1L139.5,372.3z"/>
			<polygon fill="#848384" points="168.2,366.3 168.1,365.8 168,365.3 168,364.8 168.1,364.3 168.2,364 168.5,363.8 173.3,361.8 
				174.8,361.2 174.8,361.2 176.3,360.8 177.6,360.5 178.7,360.5 179.3,360.7 179.2,360.8 178.9,360.9 179,361 179,361.1 
				178.5,361.8 178.5,361.9 177.4,362.8 176.9,363.1 176.2,363.6 174.8,364.4 173.5,365 168.7,367.1 168.5,366.8 			"/>
			<polygon fill="#848384" points="501,126.4 501,126.3 501,126.3 			"/>
			<polygon fill="#848384" points="457.3,99.6 458.5,99.3 458.8,99.2 459.4,99.1 459.4,99.1 459.5,99.1 459.6,99 459.7,99 459.7,99 
				459.8,99 459.8,99 459.8,99 469.2,96.7 482.1,93.7 479.8,95.3 479.7,95.5 478.6,95.6 468.2,97.5 454.6,100.3 455.9,100 			"/>
			<polygon fill="#848384" points="361.1,187.8 361.3,187.7 361.4,187.7 361.6,187.6 361.8,187.5 362,187.4 362.1,187.4 
				362.4,187.3 362.5,187.2 362.7,187.1 362.9,187 363.1,186.9 363.3,186.9 363.5,186.8 363.6,186.7 363.9,186.6 364,186.5 
				364.3,186.4 364.4,186.4 364.5,186.4 364.5,186.3 364.5,186.3 364.5,186.3 364.6,186.3 364.6,186.3 364.6,186.3 364.6,186.3 
				364.6,186.3 364.6,186.3 364.6,186.3 364.7,186.3 365.5,187.7 365.5,187.7 365.5,187.7 365.4,187.7 365.4,187.8 365.4,187.8 
				365.3,187.8 365,188 364.7,188.1 364.4,188.2 364.1,188.4 363.8,188.5 363.5,188.6 363.3,188.7 363,188.8 362.7,188.9 362.4,189 
				360.8,188 360.9,187.9 			"/>
			<polygon fill="#414042" points="226.8,90.4 226.9,90.5 240.7,119.6 240.9,120.1 241.2,120.7 241.4,121.2 241.7,121.8 
				241.9,122.2 242.1,122.6 242.2,122.9 242.3,123.1 242.3,123.1 243.9,126.4 243.9,126.5 244.1,126.8 244.3,127.3 244.6,127.9 
				245,128.7 245.4,129.5 245.8,130.5 246.2,131.4 247.2,133.4 252.3,144.2 251.3,143.9 225.6,89.5 			"/>
			<polygon fill="#848384" points="160.3,305.7 160.3,305.7 160.3,305.7 160.2,305.8 160.2,305.8 160.1,305.9 160,306 159.8,306.1 
				159.5,306.2 159.2,306.4 158.7,306.7 158.2,307 157.5,307.4 157.4,307.4 154.8,308.7 153.7,309.3 151.9,310.1 151.9,310.3 
				151.7,310.1 151.6,310 151.5,309.9 151.3,309.8 151.2,309.7 151.1,309.6 151,309.5 151,309.4 150.9,309.3 150.8,309.2 
				150.8,309.1 150.8,309 150.8,309 150.9,307.7 150.9,307.6 151,307.6 151,307.6 151,307.6 152.6,307 153,306.9 157,305.7 
				160.2,305.1 160.3,305.1 160.3,305.2 160.4,305.2 160.4,305.2 			"/>
			<polygon fill="#848384" points="155.5,94.4 155.4,94.4 154.7,94.3 154.4,94.3 154.4,94.2 154.3,94.1 154.3,93.9 154.4,93.8 
				155,92.7 155.2,92.5 156.8,91.1 159.1,89.5 161.9,87.9 165.1,86.4 166.4,85.9 168.2,85.1 168.6,85 171.6,84 173.7,83.6 
				174.2,83.5 175.1,83.4 175.6,83.5 175.8,83.8 175.6,84.2 174.9,84.8 174,85.5 173.4,85.9 171.5,87.1 168.7,88.6 166.4,89.6 
				166.4,89.8 166.4,90.7 166.4,90.8 166.3,90.8 163.1,92.2 160.9,93 160.1,93.3 157.5,94 			"/>
			<polygon fill="#848384" points="170.2,113.7 170,113.7 169.2,113.7 169.1,113.6 168.9,113.4 168.9,113.4 168.9,113.4 
				168.8,113.2 168.8,113.2 169.2,112.5 169.9,111.7 170,111.6 171.1,110.8 172.3,110 173.8,109.2 177,107.9 176.7,108.1 
				176.5,108.4 176.4,108.8 176.4,109.3 176.5,109.8 176.7,110.3 177,110.8 173.8,112.2 174,112.5 173.4,112.8 172.7,113 
				172.2,113.2 171.9,113.3 171,113.5 			"/>
			<polygon fill="#848384" points="166.1,178.8 166,178.7 165.9,178.5 165.8,178.4 165.7,178.3 165.6,178.2 165.6,178.1 165.5,178 
				165.5,177.9 165.5,177.9 165.5,177.8 165.6,176.5 165.6,176.5 165.7,176.4 165.7,176.4 165.7,176.4 166.8,176 167.7,175.7 
				171.7,174.5 174.9,174 175,174 175,174 175.1,174 175.1,174 175,174.5 175,174.5 175,174.6 174.9,174.6 174.9,174.7 174.8,174.7 
				174.7,174.8 174.5,174.9 174.2,175.1 173.8,175.3 173.4,175.5 172.9,175.8 172.2,176.2 172.1,176.2 169.5,177.5 168.4,178.1 
				166.8,178.8 166.8,179.3 166.4,179 166.3,178.9 			"/>
			<polygon fill="#848384" points="79.2,270.2 78.8,270.2 79.4,268.2 			"/>
			<polygon fill="#848384" points="118.5,415 118.4,414.9 118.4,414.7 118.5,414.6 119.1,413.5 119.3,413.3 120.9,411.8 
				123.2,410.3 126,408.7 129.2,407.1 130.9,406.4 132.3,405.9 132.7,405.8 135.7,404.8 137.8,404.3 138.3,404.2 139.2,404.2 
				139.7,404.3 139.9,404.5 139.7,404.9 139.1,405.5 138.1,406.3 137.5,406.7 135.6,407.8 132.8,409.3 130,410.6 130,410.8 
				129.9,411 129.8,411.8 129.8,411.9 127.2,412.9 125,413.7 124.2,414 121.6,414.8 119.6,415.2 119.5,415.2 118.8,415.1 118.5,415 
							"/>
			<polygon fill="#848384" points="139.5,377.7 140.3,376.9 141.3,376 142.6,375.2 142.7,375.2 144.1,374.5 147.3,373.1 147,373.3 
				146.8,373.6 146.7,374 146.7,374.5 146.8,375.1 147,375.6 147.3,376.1 147.5,376.4 144.3,377.8 143,378.3 141.7,378.7 
				140.9,378.9 140.4,378.9 139.5,378.9 139.4,378.9 139.1,378.5 139.1,378.4 139.2,378.2 136.9,379.2 136.9,379.2 139.3,378.1 			
				"/>
			<polygon fill="#848384" points="283.9,240.5 284.8,239.9 285.1,239.7 287.7,248.8 293.1,234.5 293.7,234.1 287.3,251.1 
				287,250.1 			"/>
			<polygon fill="#848384" points="217.6,331.1 219.8,330.2 220.5,329.8 220.8,329.7 221.4,330.2 221.8,330.1 221.7,333 
				219.8,333.8 219.6,333.7 218,331.7 			"/>
			<path fill="#848384" d="M213.2,333.8l1,0.9l1.1-0.5l0.1-0.1L215,333l-0.2-0.7l-0.3,0.1l-0.4-0.5l-2,0.9l0.5,0.5L213.2,333.8z
				 M214.7,334L214.7,334l0.1-0.1L214.7,334L214.7,334z"/>
			<path fill="#414042" d="M237.4,270.1L196.1,354l2.2-0.9l8-16.3l0.3-0.6l4.9-2.1l0-0.1l-0.2-0.1l-0.1,0L211,334l0,0l-4.3,1.9
				l0-0.1l1.9-3.8l0.5-1l0,0l0.8,0.4l0.7,0.4l2-0.9l-0.8-0.4l0.2-0.8l-1.6,0.5l0,0l0,0l-0.1,0l0,0l0,0l-0.1,0l-0.1,0l-0.1,0l0-0.1
				l0,0l0.1,0l0.1,0l0,0l0,0l-0.1-0.1l0,0l0,0l0,0l0,0l0,0l-0.1,0l-0.1,0l-0.1,0l-0.1,0l-0.1,0l-0.1,0l-0.1,0l0,0l0,0l1.2-2.4l0-0.1
				l1-2.1l0.2-0.5l0.4-0.8l0.4-0.7l0.3-0.6l0.2-0.5l0.1-0.3l0-0.1l0-0.1l0.7-1.5l0.3-0.7l0.7-1.3l0.7-1.3l0.9-1.8l14.5-29.6l1-0.4
				l-0.4-0.9l0.2-0.4l1.8-3.7l0.1,0l1.1-0.5l0.8-0.4l0.5-0.2l0.1,0l-1.9-0.1l1.7-3.5l0.1-0.2l0.1-0.2l0.2-0.4l0.1-0.2l0.2-0.3
				l0.2-0.5l0.3-0.6l0.3-0.6l0.2-0.3l0.4-0.9l0.3-0.7L237.4,270.1z M209.6,330.3L209.6,330.3L209.6,330.3L209.6,330.3l0,0.2l0,0l0,0
				l0.1,0l0.1,0l0.1,0l0,0l0,0l0,0.1l0,0l0,0l-0.1,0l-0.1,0l0,0l0,0l0,0l0,0l0,0l0,0l0,0l-0.3,0.1L209.6,330.3z"/>
			<polygon fill="#848384" points="275.5,248.6 269.2,251.3 275.4,248.2 			"/>
			<polygon fill="#848384" points="208.7,95.8 208.7,95.8 208.5,96 208.9,96 209.2,96.1 209.5,96.4 209.6,96.5 209.5,96.5 
				209.5,96.5 209.5,96.6 208.8,97.2 208.2,97.6 207.7,97.9 206.3,98.6 206.2,98.6 204.8,99.2 204.4,99.3 203.9,99.4 203.8,99.5 
				203.1,99.8 202.9,99.5 198.2,101.6 197.9,101.1 197.7,100.5 197.6,100 197.6,99.5 197.7,99.1 197.9,98.8 198.2,98.6 202.9,96.5 
				204.5,95.9 205.9,95.5 207.2,95.3 207.4,95.3 208.3,95.3 208.3,95.3 208.4,95.3 			"/>
			<polygon fill="#848384" points="156.9,182.9 156.9,182.9 157.2,182.4 158.9,180.7 159,180.7 165.4,176.4 165.4,176.5 
				165.3,176.5 165.2,177.8 165.2,177.9 165.2,177.9 165.3,178 165.3,178.1 165.4,178.2 165.5,178.3 165.6,178.4 165.7,178.6 
				165.8,178.7 165.9,178.8 166,178.9 166.2,179 166.8,179.5 166.8,179.6 159.7,182.5 158.4,182.9 158,183 157.7,183.2 157.4,183.2 
				157.4,183.3 157.3,183.3 157.1,183.3 157.1,183.3 157,183.3 156.9,183.3 156.9,183.3 156.8,183.3 156.8,183.3 156.8,183.3 			"/>
			<polygon fill="#848384" points="465.7,142.1 466.2,141.9 466.2,142.5 465.3,146.5 464.9,147.5 460.6,144.3 461.8,143.8 			"/>
			<path fill="#848384" d="M158.2,126L158.2,126L158.2,126L158.2,126L158.2,126l0.2,0l0.1,0l0.1,0l0.1,0l0.1,0l0.1,0l0.3-0.1
				l0.3-0.1l0.4-0.1l1.3-0.4l5.4-2.2l0-0.8l0,0l0.3-0.1l0.1,0l0.7-0.3l0,0l0,0l0,0l1.9-0.9l1.1-0.6l2.6-1.3l0.1,0l0.7-0.4l0.5-0.3
				l0.4-0.2l0.3-0.2l0.3-0.2l0.2-0.1l0.2-0.1l0,0l0.1,0l0.1,0l0,0l0,0l0.1-0.5l0,0l0,0l0,0l-0.1,0l-3.2,0.5l-4,1.2l-2,0.7l0,0l0,0
				l0,0l0,0l0,0.1l-0.1,1.3l0,0.1l0,0.1l0,0.1l0.1,0.1l0.1,0.1l0.1,0.1l0.1,0.1l0.1,0.1l0.1,0.1l0.1,0.1l0,0l0,0l-0.1-0.1l-0.1-0.1
				l-0.1-0.1l-0.1-0.1l-0.1-0.1l-0.1-0.1l-0.1-0.1l0-0.1l0-0.1l0-0.1l0.1-1.3l0-0.1l0,0l-0.3,0.2l-6.1,4l0,0l-1.7,1.7l-0.3,0.5l0,0
				L158.2,126z M167.6,121.7L167.6,121.7L167.6,121.7L167.6,121.7z"/>
			<polygon fill="#848384" points="84.3,237.1 109.1,226.3 109.5,226.5 84.2,237.5 			"/>
			<polygon fill="#848384" points="469.1,141.5 469.1,141.5 468.1,141 468.1,141 			"/>
			<polygon fill="#848384" points="468.1,141 468.1,141 468.2,141 468.2,141 468.3,140.9 468.4,140.9 468.5,140.9 468.6,140.8 
				468.7,140.8 468.8,140.8 468.9,140.7 469,140.7 469.1,140.6 469.2,140.6 469.3,140.5 469.4,140.5 469.5,140.4 469.6,140.4 
				469.7,140.3 469.8,140.3 470,140.2 470.1,140.2 470.2,140.1 470.9,140.7 470.7,140.8 470.5,140.9 470.4,141 470.2,141.1 
				470,141.2 469.9,141.2 469.7,141.3 469.5,141.4 469.3,141.4 469.2,141.5 469.2,141.5 469.1,141.5 468.1,141 			"/>
		</g>
		<g>
			<polygon fill="#414042" points="151.2,309.9 151.1,309.8 151,309.7 150.9,309.6 150.8,309.5 150.7,309.4 150.6,309.3 
				150.6,309.2 150.5,309.1 150.5,309 150.5,309 150.7,307.7 150.7,307.6 150.7,307.6 150.8,307.6 150.8,307.5 150.9,307.6 
				151,307.6 151,307.6 151,307.6 151,307.6 150.9,307.6 150.9,307.7 150.8,309 150.8,309 150.8,309.1 150.8,309.2 150.9,309.3 
				151,309.4 151,309.5 151.1,309.6 151.2,309.7 151.3,309.8 151.5,309.9 151.6,310 151.7,310.1 151.9,310.3 151.9,310.4 
				151.5,310.1 151.4,310 			"/>
			<polygon fill="#414042" points="138.8,371.6 138.8,371.5 138.7,371.4 138.6,371.3 138.6,371.2 138.6,371.2 138.6,371.1 
				138.7,369.8 138.7,369.8 138.8,369.7 138.8,369.7 138.8,369.7 138.8,369.7 138.7,369.8 138.7,369.8 138.6,371.1 138.6,371.2 
				138.6,371.2 138.6,371.3 138.7,371.4 138.8,371.5 138.8,371.6 138.9,371.7 139,371.8 138.9,371.7 			"/>
			<polygon fill="#414042" points="70.7,326.6 96.3,317.1 96.9,317.1 70.4,326.9 			"/>
			<polygon fill="#414042" points="166.5,114.4 166.5,114.4 166.6,114.4 166.5,114.5 166.5,115.4 152.4,121.7 147,124.4 
				144.9,125.4 138.2,127.9 137.8,127.7 143.6,124.4 			"/>
			<polygon fill="#414042" points="128.2,459.3 127.9,458.8 127.9,458.7 131.5,457.2 140.7,453.1 140.7,453 131.5,457 127.9,458.6 
				127.8,458.3 127.7,458 127.7,457.7 127.7,457.2 127.8,456.8 128,456.5 128.2,456.3 128.5,456.1 128.5,456.2 140.6,450.9 
				140.6,450.8 140.7,450.8 148.6,447.4 148.3,447.6 148.1,447.9 148,448.3 148,448.8 148.1,449.4 148.3,449.9 148.6,450.4 
				148.9,450.8 149.3,451.2 149.7,451.4 150,451.5 150.4,451.4 142.8,454.7 142.8,454.7 142.7,454.7 130.5,460.1 130.5,460.1 
				130,460.3 129.7,460.4 129.3,460.3 128.9,460.1 128.5,459.7 			"/>
			<polygon fill="#414042" points="199.1,430.1 204,427.9 204,427.9 204.1,427.9 203.9,432.5 203.8,432.6 201.8,433.5 199.1,430.1 
							"/>
			<polygon fill="#414042" points="145.6,300.7 125.8,309.7 113.8,315.9 111.6,316.8 111.2,316.5 125.7,309.4 			"/>
			<polygon fill="#414042" points="167.2,121.4 167.1,121.2 167,121.1 166.9,121 166.8,120.9 166.7,120.8 166.7,120.7 166.6,120.6 
				166.6,120.6 166.6,120.5 166.8,119.2 166.8,119.2 166.8,119.1 166.8,119.1 166.8,119.2 166.8,119.2 166.6,120.5 166.6,120.6 
				166.7,120.6 166.7,120.7 166.7,120.8 166.8,120.9 166.9,121 167,121.1 167.1,121.2 167.2,121.4 167.3,121.5 167.3,121.5 
				167.3,121.5 			"/>
			<polygon fill="#414042" points="165.9,178.8 165.8,178.7 165.7,178.6 165.6,178.4 165.5,178.3 165.4,178.2 165.3,178.1 
				165.3,178 165.2,177.9 165.2,177.9 165.2,177.8 165.3,176.5 165.4,176.5 165.4,176.4 165.4,176.4 165.5,176.4 165.6,176.4 
				165.7,176.4 165.7,176.4 165.6,176.5 165.6,176.5 165.5,177.8 165.5,177.9 165.5,177.9 165.5,178 165.6,178.1 165.6,178.2 
				165.7,178.3 165.8,178.4 165.9,178.5 166,178.7 166.1,178.8 166.3,178.9 166.4,179 166.8,179.3 166.8,179.5 166.2,179 166,178.9 
							"/>
			<polygon fill="#414042" points="244.3,5.4 243.6,0.9 245.7,0 245.7,0 249.4,3.1 249.4,3.2 249.3,3.2 244.3,5.4 			"/>
			<polygon fill="#414042" points="246,9.4 251.1,7.2 251.1,7.2 251.1,7.2 251,12 250.9,12 248.8,12.9 246.1,9.4 			"/>
			<polygon fill="#414042" points="197.3,426.1 196.6,421.8 198.7,420.9 198.8,420.8 202.3,423.9 202.3,423.9 202.3,423.9 
				197.3,426.1 			"/>
			<polygon fill="#414042" points="249.1,5.7 245,7.5 243,8.4 242.9,8.4 242.9,8.3 245,7.4 249.1,5.6 249.1,5.7 			"/>
			<polygon fill="#414042" points="175.1,38.1 178.6,36.6 187.5,32.7 187.4,32.6 187.4,32.5 178.5,36.4 175,38 174.8,37.5 174.7,37 
				174.8,36.5 174.9,36 175,35.7 175.3,35.5 175.7,35.3 175.8,35.4 188,30 188.1,30 188.1,30 195.7,26.6 195.4,26.8 195.2,27.1 
				195.1,27.6 195.1,28.1 195.2,28.6 195.4,29.1 195.7,29.6 195.8,29.8 175.4,38.7 175.3,38.6 			"/>
			<polygon fill="#414042" points="110.1,457.7 109.9,459.1 105.5,460.8 105.2,460.5 			"/>
			<polygon fill="#414042" points="197.8,428 202,426.2 202,426.3 197.8,428.1 195.7,429 195.7,428.9 			"/>
		</g>
		<g>
			<path fill="#2F2F2F" d="M238.3,322.1l0.2,0.2l3.1,1.8l0.4,0.2l3.5,1.3l3.8,0.7l3.9,0.1l3.7-0.5l0.4-0.1l3.4-1.1l2.7-1.6l0.6-0.4
				l1.9-2.1l0.5-0.7l0.8-2.4l0.2-0.8l0-0.9l-0.3-2.6l-0.3-0.8l-1.4-2.5l-0.5-0.6l-2.3-2.2l-3.1-1.8l-0.4-0.2l-2.6-0.9l-0.9-0.3
				l-3.6-0.7l-0.2,0l-0.5,0l-0.4,0l-0.6,0l-2-0.1l-0.4,0l-1.6,0.2l-2.1,0.3l-0.4,0.1l-3.4,1.1l-2.7,1.6l-0.6,0.4l-1.9,2.1l-0.5,0.7
				l-0.9,2.4l-0.2,0.8l0,0.9l0.3,2.6l0.3,0.8l1.4,2.5l0.5,0.5l0,0l0.5,0l0.7-0.1l0.9-0.1l0.8-0.1l0.9,0l0.3,0.3l-0.4,0.6l-0.5,0.5
				l-0.5,0.4l-0.1,0l-0.4,0.3L238.3,322.1z M257.5,314.6l-0.1-0.1l1.4,1.3l-0.1-0.1l-0.1-0.1l0.6,1l0.1,0.9l-0.4,1.2l-1,1.1
				l-1.5,0.9l-1.9,0.6l-2.2,0.3l-2.3-0.1l-2.3-0.4l-2.1-0.7l-1.7-1l-1.3-1.2l-0.7-1.3l-0.1-1.3l0.3-0.8l0.8-0.9l-0.1,0l-0.2,0.1
				l1.6-1l-0.1,0l2.1-0.7l0,0l2.4-0.3l2.5,0.1l2.5,0.5l2.2,0.8l0,0L257.5,314.6z"/>
			<polygon fill="#2F2F2F" points="440.4,176.5 441.4,176.9 442.4,177.5 442.7,177.8 442.7,177.8 442.4,177.5 441.4,176.9 
				440.4,176.5 440.3,176.5 440.3,176.5 			"/>
			<polygon fill="#2F2F2F" points="206.9,335.8 211,334 211.1,334 206.8,335.9 			"/>
			<polygon fill="#2F2F2F" points="475.5,101.9 475.5,101.9 475.5,101.8 475.5,101.7 475.5,101.7 475.9,101.7 476,101.7 
				476.1,101.7 476.2,101.8 476.3,101.8 476.4,101.9 476.4,102 476.5,102.1 476.6,102.2 476.6,102.2 476.6,102.4 476.6,102.4 
				476.3,102.4 476.3,102.4 476,102.3 475.8,102.3 475.8,102.3 475.7,102.3 475.7,102.2 475.5,102.1 475.5,102.1 			"/>
		</g>
		<g>
			<polygon fill="#D2D3D4" points="388.4,140.7 388.4,140.8 388.3,140.7 388.3,140.7 388.3,140.7 			"/>
			<path fill="#BCBEC0" d="M125.2,251.1l1.1,0.4l8.6-3.4l4.6-1.9l1.7-0.7l9.7-4.3l2.2-1l5.6-2.2l1.1-0.4l0.1,0l3.6-1.3l3.2-1.2
				l12.5-4.5l1.7-0.6l7.3-2.3l3.6-1l3.8-1.1l3.9-1l2.7-0.7l1.2-0.3l1.1-0.3l5.6-1.4l0.7-0.2l5.7-1.5l2.1-0.5l2.1-0.6l4.4-1.3
				l1.1-0.3l1.5-0.4l5.6-1.7l0.6-0.2l2.5-0.8l5-1.6l0,0l0.3-0.1l8.1-2.8l6.3-2.2l5.3-1.8l0.7-0.3l7.8-2.8l0.9-0.3l2.1-0.8l-2.2,1
				l14.5-2l0.2-3.5l4.7-1.9l9.9-4l9.7-3.9l4.8-1.9l8.7-3.5l5.7-2.2l7.1-2.8l7.2-2.8l3.5-1.4l10.6-4l2.7-1l3.9-1.4l4.8-1.8l2.6-1
				l2.7-1l0.8-0.3l3-1.1l1.6-0.6l1.5-0.5l2.1-0.8l2.1-0.7l0.9-0.3l2.2-0.7l-2,1.2l-14.7,14.7l-9.3,8.3l-4.6,4.1l-2.5,2.1L350,192
				l-1.6,1.4l12.3-5.4l0.1-0.1l0.2-0.1l0.2-0.1l0.1-0.1l0.2-0.1l0.1-0.1l0.2-0.1l0.1-0.1l0.2-0.1l0.1-0.1l0.2-0.1l0.2-0.1l0.2-0.1
				l0.2-0.1l0.2-0.1l0.2-0.1l0.2-0.1l0.2-0.1l0.2-0.1l0.2-0.1l0,0l0,0l0,0l0,0l0,0l0,0l0,0l0,0l0,0l0,0l0,0l0,0l0,0l0,0l12-5.2
				l1.1-0.5l6.9-3l0.5-0.2l0.2-0.1l0.9-0.4l1.2-0.5l1.3-0.6l1.4-0.6l1.3-0.6l1.2-0.5l1-0.4l0.2-0.1l0.3-0.1l3-1.3l34.4-15l19.1-8.3
				l0.4-0.2l9-3.9l0.7-0.3l1.2-0.5l4-1.7l0.5-0.2l1.9-0.8l0,0l0,0l0,0l0,0l0,0l0,0l0,0l0,0l0.1-0.1l0,0l0.1-0.1l0,0l0.1-0.1l0.1,0
				l0.1-0.1l0.1,0l0.1-0.1l0.1,0l0.2-0.1l0.1,0l0.2-0.1l0.1,0l0.2-0.1l0.1,0l0.2-0.1l0.2-0.1l0.1,0l7.7-3.4l0,0l0,0l0,0l0,0l0,0l0,0
				l0,0l0,0l0,0l1.1-0.5l0,0l0,0l0,0l0,0l0,0l0,0l0,0l0,0l0,0l0,0l0,0l0,0l0.1,0l0,0l0,0l10.3-4.5l-0.1,0l-0.1-0.1l-0.1-0.1
				l-0.1-0.1l0,0l0.3-0.2l0.7-0.4l1-0.5l0.9-0.4l0.3-0.2l1.4-0.7l1.5-0.6l0.4-0.2l1.1-0.4l1.3-0.5l1.1-0.4l0.8-0.3l0,0l0,0l0.3-0.1
				l0.1,0l0,0l0,0l0,0l0,0l0,0l0,0l0,0l0,0l0.1,0l0,0l0,0l0,0l0,0.1l0,0.1l0,0.1l2.2-0.9l-2.4,0.4l-2.6-0.8l-2.7-1.9l-2.6-2.9
				l-2.3-3.7l-1.9-4.3l-1.3-4.5l-0.6-4.5l0.1-4.1l0.8-3.5l1.4-2.6l2-1.5l-9,2l-2.3,1.6l-0.1,0.1l-1.1,0.1l-10.3,1.8l-13.6,2.8
				l-0.3,0.1l-1.6,0.4l-1.6,0.4l-1.4,0.4l-1,0.3l-0.1,0l-0.2,0.1l-0.5,0.1l0,0l-0.1,0l0,0l-19.9,5.4l-3,0.9l1.3,0l0.6,0.1l0.2,0l0,0
				l0,0l-0.2,0l-1,0.8l-0.2,0.1l-0.8,1.3l-0.1,0.2l-0.6,1.8l-0.4,2.1l-0.1,0.2l0,0.3l-0.1,2.3l0.2,2.4l0.1,0.3l0.1,0.3l0.4,2.3
				l0.7,2l0.1,0.3l0,0l-0.2,0.3l-0.8,1.5l-0.8,0.7l-2.5,1.5l-1.5,0.9l-1.2,1.1l-8.4,4.4l-2.8,1.4l-0.3,0.1l-1.6,0.6l-5.3,2.5
				l-1.1,0.4l-2,0.6l-1.4,0.5l-0.3,0.1l-0.9-0.3l-0.9-0.7l-1.7-1.2l-2-2.2l-0.5-0.6l-0.4-0.6l-1.8-2.9l-0.1-0.3l-1.6-3.6l0,0
				l-0.2-0.6l-0.9-3.2l-0.1-0.3l-0.5-3.6l-0.1-0.5l0.1-3.2l0-0.5l0.6-2.8l0.1-0.4l1.2-2.2l0.1-0.2l1.5-1.2l0.3-0.2l-1.6,0.5
				l-1.2,0.9l-0.6,0.4l-0.9,1.7l-0.4,0.7l-0.5,2.3l-0.2,0.8l0,2.7l0,1l0.4,2.9l0.2,1.2l0.8,2.7l0.4,1.5l1,2.3l0.8,1.7l1.1,1.7
				l1.1,1.8l1.5,1.7l1,1.1l0.8,0.6l1.8,1.3l0.8,0.3l0.2,0.5l-0.1,0.4l-0.1,0.4l-0.1,0.3l-0.1,0.3l-0.2,0.3l-0.2,0.3l-0.2,0.3
				l-0.2,0.3l-0.3,0.2l-0.3,0.2l-0.3,0.2l-0.3,0.2l-0.3,0.1l-1.9,0.6l-19.5,6.2l-19.5,6l-10.1,3l-9.4,2.5l-7.2,1.8l-3.2-1.2l-4.8-3
				l-2.8-3.5l-3.9,1.7l0-4.1l0.8-3.5l3.9-1.7l3.6-3.6l5.5-3.1l-2.5,1.1l-6.7,2.9l-3.2,1.5l-4.8,2.2L297,156l-1.7,0.8l-5.2,2.5
				l-4.7,2.3l-9.4,4.5l-0.1,0.1l-0.7,0.4l-10.5,5.4l-4.5,2.3l-3.9,2l-1.2,0.6l-10,5.3l-3,1.6l-4.7,2.5l-0.6,0.3l-2.4,1.3l-0.9-0.3
				l-3.3-0.9l-0.2-0.1l-0.4-0.1l0,0l0,0l0,0l0,0l0,0l-0.2,0.2l-0.2,0.2l-0.2,0.2l0,0l-0.2,0.1l-0.2,0.2l-0.2,0.2l-0.2,0.2l-0.2,0.2
				l-0.2,0.2l-0.2,0.2l2.4,1.2l0.8,0.4l-1,0.5l-1.1,0.6l-3.9,2.1l-2.3,1.2l-0.6,0.3l-1.2,0.7l-3,1.6l-4,2.2l-4.2,2.4l-2.4,1.3
				l-7.2,4l-1.4,0.8l-0.6,0.4l-5.7,3.2l-2,1.1l-7.5,4.3l-3.4,1.9l-15.2,8.9l-3,1.7l-0.6,0.4l-0.3,0.2l-6.1,3.7l-12.9,7.8
				L125.2,251.1z M236.6,188.5l3.3,0.9l0,0l0,0L236.6,188.5z M299.3,160.6l0,0.2l-0.1,0.2l-0.1,0.3l-0.2,0.5l-0.1,0.1l-0.8,0.9
				l-0.5,0.5l-0.6,0.5l-1.3,0.8l-1.4,0.7l-1.4,0.6l-1.3,0.4l-1.1,0.1l0,0l-0.6-0.1l-0.3,0l-0.4-0.3l-0.2-0.2l0,0l-0.1-0.2l0-0.2l0,0
				l0-0.1l0.1-0.6l0.1-0.3l0.1-0.2l0.6-0.9l0.9-0.9l0.3-0.2l0,0l0,0l0,0l0-0.1l0-0.1l0.1-0.2l0.1-0.2l0,0l0.2-0.2l0.2-0.2l0,0
				l0.2-0.1l0.2-0.1l0.2-0.1l0.1,0l0.1,0l0.7,0.3l0.5-0.3l1.5-0.5l1.4-0.3l0.4-0.1l1.2-0.1l1,0.2l0,0l0.2,0.2l0.1,0.2l0,0.2
				L299.3,160.6z M475.7,105.9l0.1-0.2l0.1-0.1l0.4-0.3l0.1-0.1l0.8-0.4l0.9-0.4l1-0.4l0.9-0.3l0.2-0.1l0.9-0.2l0.1,0l0.7-0.1l0.2,0
				l0.2,0l0.3,0.1l0.1,0.1l0,0.2l-0.1,0.2l-0.3,0.3l-0.1,0.1l0,0l0,0l-0.5,0.3l-0.1,0.1l-0.1,0.1l-0.2,0.1l-0.6,0.3l-0.1,0l-0.4,0.2
				l-0.4,0.2l-0.4,0.2l-0.8,0.3l-0.4,0.1l-0.8,0.2l-0.3,0.1l-0.6,0.1l-0.3,0.1l-0.3,0l-0.3,0l-0.4-0.1l0-0.3l0.2-0.3l0.1-0.1
				L475.7,105.9z M483.3,100.1l-0.2,0.3l-0.3,0.2l-0.2,0.1l-0.7,0.4l-0.9,0.4l-1,0.3l-0.7,0.2l-0.3,0.1l-1,0.2l0,0l-0.9,0.1l-0.4,0
				l0,0l-0.3,0l0,0l-0.3,0l-0.2,0l0,0l0,0l0,0l-0.2-0.1l0,0l0-0.2l0-0.1l0-0.1l0-0.1l0,0l0,0l0.3-0.3l0.6-0.3l0.5-0.2l0.3-0.1
				l0.9-0.3l0.5-0.1l0.5-0.1l1-0.2l1-0.1l0.9-0.1l0.7,0l0.2,0l0.2,0.1L483.3,100.1z M481.4,98.2l-0.6,0.1l-0.2,0l-0.1,0l-0.7,0.1
				l-0.3,0l-0.7,0.1l-0.3,0l-0.6,0l-0.2,0l-0.5,0l-0.2,0l-0.3-0.1l-0.1-0.1l-0.1-0.1l-0.1,0l-0.1,0l-0.2-0.1l0,0l0,0l0-0.1l0.2-0.1
				l0.2-0.1l0.7-0.2l0.9-0.2l1.1-0.2l1.2-0.2l0.8-0.1l0.4,0l0.6,0l0.4,0l0.4,0l0,0l0.1,0l0.2,0.1l0.1,0.1l0,0.2l-0.2,0.2l-0.3,0.2
				l-0.1,0l-0.2,0.1l0,0l-0.2,0.1l-0.3,0.1l-0.5,0.2l-0.1,0l-0.1,0L481.4,98.2z M444.7,127.7L444.7,127.7l-0.1-0.2l0-0.1l0,0
				l0.1-0.2l0.3-0.5l0.1-0.1l0.7-0.7l1-0.7l0.1-0.1l1.5-0.8l1.6-0.7l1.6-0.5l1.6-0.4l1.4-0.2l1.2,0l0.7,0.2l0.1,0l0.1,0.1l0.1,0.1
				l0,0.1l0,0.1l0,0.1l0,0.1l0,0.1l0,0.1l0,0.2l0,0.1l-0.4,0.6l-0.6,0.6l-0.2,0.2l-0.2,0.2l-0.9,0.6l-1.4,0.7l-1.6,0.7l-1.7,0.5
				l-1.6,0.4l-0.2,0l-0.1,0l-1.3,0.2l-1.1,0l-0.5-0.2L445,128l0,0l-0.1-0.1l-0.1-0.1L444.7,127.7L444.7,127.7z M415.5,150.6
				L415.5,150.6L415.5,150.6L415.5,150.6L415.5,150.6l0.1,0.1l0.2,0.2l0.1,0.4l0,0.2l-0.1,0.5l-0.1,0.2l-0.4,0.5l-0.5,0.5l-0.3,0.2
				l-0.7,0.4l-1.2,0.4l-1.2,0.3l-0.3,0.1l-1,0.1l-0.8-0.1l-0.2,0l-0.2-0.1l-0.4-0.3l-0.1-0.1l-0.1-0.1l-0.1-0.1l-0.1-0.1l0-0.1
				l0-0.1l0.1-0.5l0.4-0.5l0.7-0.6l0.9-0.6l1.1-0.5l0.7-0.3l0.8-0.2l0.8-0.1l0.7,0l0.6,0.1l0.3,0.1L415.5,150.6L415.5,150.6
				L415.5,150.6L415.5,150.6L415.5,150.6z M450.7,146l0,0.5l0,0l0,0l0,0l0,0l0,0l0,0l0,0l0,0l0,0l0,0l0,0l0,0l0,0l0,0l0,0l0,0l0,0
				l0,0l0,0l0,0l0,0l0,0l0,0l0-0.4l-0.1-1.6l-0.1,0l-0.3-0.1l-0.2-0.1l-0.2-0.1l-0.1-0.1l0-0.2l0-0.1l0.1-0.2l0.1-0.1l0.2-0.1
				l0.3-0.1l0.3-0.1l0.3,0l0.3,0l0.3,0.1l0.2,0.1l0.2,0.1l0.1,0.2l0,0.2l0,0l-0.1,0.2l-0.1,0.1l-0.2,0.1l-0.3,0.1l-0.3,0.1
				L450.7,146z"/>
		</g>
		<g>
			<polygon fill="#575757" points="480.6,98.4 480.4,98.4 479.7,98.5 479.4,98.5 478.7,98.6 478.5,98.6 477.9,98.6 477.6,98.6 
				477.2,98.6 477,98.5 476.7,98.5 476.6,98.4 476.5,98.3 476.4,98.3 476.3,98.3 476.3,98.3 476.2,98.2 476.2,98.2 476.3,98.1 
				476.4,98 476.6,97.9 477.3,97.7 478.2,97.5 479.3,97.3 480.4,97.1 481.2,97 481.6,96.9 482.1,96.9 482.6,96.9 483,96.9 483,96.9 
				483.1,96.9 483.3,97 483.4,97.2 483.4,97.3 483.2,97.5 482.9,97.7 482.9,97.7 482.9,97.7 482.6,97.8 482.4,97.9 482.2,98 
				481.7,98.1 481.6,98.2 481.6,98.2 481.4,98.2 480.8,98.3 			"/>
			<polygon fill="#575757" points="489.4,131.4 489.4,131.3 489.4,131.3 489.7,131.1 490.4,130.7 491.4,130.2 492.3,129.8 
				492.6,129.6 494.1,129 495.6,128.3 496,128.2 497.1,127.7 498.4,127.2 499.6,126.8 500.4,126.5 500.4,126.5 500.4,126.4 
				500.7,126.4 500.8,126.3 500.8,126.3 500.8,126.3 500.9,126.3 500.9,126.3 500.9,126.3 500.9,126.3 500.9,126.3 500.9,126.3 
				501,126.3 501,126.3 501,126.4 501,126.5 501,126.6 501,126.7 501,126.7 500.7,127.3 500.6,127.4 500,128.2 499,128.9 
				498.7,129.1 497.5,129.9 496,130.6 494.5,131.2 493,131.6 492.8,131.6 491.5,131.8 490.5,131.9 490.3,131.8 489.7,131.6 
				489.7,131.6 489.6,131.6 489.5,131.5 			"/>
			<polygon fill="#575757" points="479.3,102 478.9,102 477.9,102.2 477.9,102.2 477,102.3 476.6,102.4 476.6,102.2 476.6,102.2 
				476.5,102.1 476.4,102 476.4,101.9 476.3,101.8 476.2,101.8 476.1,101.7 476,101.7 475.9,101.7 475.5,101.7 475.6,101.7 
				475.9,101.4 476.4,101.1 476.9,101 477.2,100.8 478.1,100.6 478.6,100.4 479.1,100.3 480.1,100.1 481.1,99.9 482,99.9 
				482.7,99.9 482.9,99.9 483.1,100 483.3,100.1 483.1,100.4 482.8,100.6 482.6,100.7 481.9,101.1 481,101.4 480,101.8 			"/>
			<polygon fill="#575757" points="475.8,106.5 475.7,106.3 475.5,106.1 475.5,106.1 475.5,106.1 475.7,105.9 475.8,105.8 
				475.9,105.7 476.3,105.4 476.4,105.3 477.2,104.9 478.1,104.5 479.1,104.1 480,103.8 480.2,103.7 481,103.5 481.1,103.5 
				481.8,103.4 482,103.4 482.3,103.5 482.5,103.6 482.7,103.7 482.7,103.9 482.5,104.1 482.3,104.4 482.2,104.5 482.2,104.5 
				482.1,104.5 481.7,104.8 481.5,104.9 481.4,105 481.2,105.1 480.6,105.4 480.6,105.4 480.2,105.6 479.9,105.7 479.4,105.9 
				478.6,106.2 478.2,106.3 477.5,106.5 477.2,106.6 476.5,106.7 476.3,106.8 476,106.8 476,106.7 			"/>
			<polygon fill="#575757" points="408.5,154 408.4,153.9 408.3,153.7 408.3,153.6 408.2,153.5 408.2,153.4 408.3,152.9 
				408.7,152.4 409.4,151.8 410.3,151.2 411.4,150.7 412.1,150.4 412.9,150.3 413.7,150.2 414.4,150.3 415,150.4 415.3,150.5 
				415.4,150.6 415.5,150.6 415.5,150.6 415.5,150.6 415.5,150.6 415.5,150.7 415.5,150.7 415.5,150.7 415.6,150.7 415.6,150.8 
				415.8,151 415.9,151.3 415.9,151.5 415.7,152 415.6,152.3 415.2,152.8 414.7,153.3 414.4,153.5 413.8,153.8 412.6,154.3 
				411.5,154.5 411.2,154.6 410.2,154.6 409.3,154.5 409.2,154.4 409,154.3 408.6,154.1 			"/>
		</g>
		<g>
			<polygon fill="#E6E7E8" points="166.4,90.8 166.4,90.7 166.4,89.8 166.4,89.6 168.7,88.6 171.5,87.1 173.4,85.9 174,85.5 
				174.9,84.8 175.6,84.2 175.8,83.8 175.6,83.5 175.1,83.4 174.2,83.5 173.7,83.6 171.6,84 168.6,85 168.2,85.1 166.4,85.9 
				166.2,49.7 156.1,54.1 155.3,53.5 155.7,50.2 156.5,49.9 230,17.8 231.8,19.1 232.5,19.6 232.1,22.9 203.7,35.4 229.4,89.1 
				226.8,90.4 225.6,89.5 209.7,96.4 209.6,96.5 209.5,96.4 209.2,96.1 208.9,96 208.5,96 208.7,95.8 208.7,95.8 208.4,95.3 
				208.3,95.3 207.4,95.3 207.2,95.3 205.9,95.5 204.5,95.9 202.9,96.5 198.2,98.6 177,107.9 173.8,109.2 172.3,110 171.1,110.8 
				170,111.6 169.9,111.7 169.2,112.5 168.8,113.2 168.8,113.2 168.9,113.4 168.9,113.4 166.6,114.4 166.5,114.4 166.5,114.4 			"/>
			<polygon fill="#E6E7E8" points="126.3,452.8 126.2,453.1 126.3,453.2 110.6,460.1 110.5,460.5 109.8,460 			"/>
			<polygon fill="#E6E7E8" points="157.5,436 142.7,442.5 184.1,358.6 196.1,354 198.3,353.1 198.5,353.1 199.8,354 159.7,435 			
				"/>
			<polygon fill="#E6E7E8" points="184.5,424.2 187,426.1 186.6,429.4 185.9,429.7 185.9,429.3 184.1,427.9 134.6,449.6 134,449.4 
				184.1,427.5 			"/>
			<polygon fill="#E6E7E8" points="154.4,412 154.5,412.9 154.4,413.9 154,415 153.4,416.1 152.7,417.1 151.8,418 150.8,418.6 
				148.6,423.7 145.1,423.5 147.5,418.1 147.3,417.8 147.2,416.9 147.4,415.8 147.7,414.7 148.3,413.6 149.1,412.6 150,411.8 
				150.4,411.5 152.8,406 156.3,406.2 154,411.3 			"/>
		</g>
		<path fill="#394CA0" d="M432.9,193.8l0.2-0.1l0.1-0.1l0-0.1l0.1-0.6l0-0.1l-0.1-0.1l-0.1-0.1l-0.2-0.1l-0.2-0.1l-0.2,0l-0.2,0
			l-0.2,0l-0.2,0.1l-0.2,0.1l-0.1,0.1l0,0.1l-0.1,0.6l0,0.1l0.1,0.1l0.1,0.1l0.2,0.1l0.2,0.1l0.2,0l0.2,0l0.2,0L432.9,193.8z
			 M440.6,193.7l0.4-0.5l0.2-0.6l-0.1-0.6l-0.3-0.6l0.1,0l0.2,0l0.2,0l0.2,0l0.2-0.1l0.2-0.1l0.1-0.1l0,0l0.4,0.2l-0.2,0l-0.2,0
			l-0.2,0.1l-0.2,0.1l-0.1,0.1l0,0.1l-0.1,0.6l0,0.1l0.1,0.1l0.1,0.1l0.2,0.1l-0.2,0l-0.2,0.1l-0.1,0.1l0,0.1l-0.1,0.6l0,0.1
			l0.1,0.1l0.1,0.1l0.2,0.1l0.2,0.1l0.2,0l0.2,0l0.2,0l0.2-0.1l0.2-0.1l0.1-0.1l0-0.1l0.1-0.6l0-0.1l-0.1-0.1l-0.1-0.1l-0.2-0.1
			l0.2,0l0.2-0.1l0.1-0.1l0-0.1l0-0.4l0.1,0.1l0.5,0.8l0,0.3l-0.2,0.5l-0.8,0.9l-1.1,0.7l0,0l0-0.1l0.1-0.6l0-0.1l-0.1-0.1l-0.1-0.1
			l-0.2-0.1l-0.2-0.1l-0.2,0l-0.2,0l-0.2,0l-0.2,0.1l-0.2,0.1l-0.1,0.1l0,0.1l-0.1,0.6l0,0.1l0.1,0.1l0.1,0.1l0.2,0.1l0.2,0.1l0.2,0
			l-0.4,0.1l-0.7,0.1l0.1-0.6l0-0.1l-0.1-0.1l-0.1-0.1l-0.2-0.1l-0.2-0.1l-0.2,0l-0.2,0l-0.2,0l-0.2,0.1l-0.2,0.1l-0.1,0.1l0,0.1
			l-0.1,0.6l0,0.1l0.1,0.1l0,0l-0.8,0l0.1-0.1l0-0.1l0.1-0.6l0-0.1l-0.1-0.1l-0.1-0.1l-0.2-0.1l-0.2-0.1l-0.2,0l-0.2,0l-0.2,0
			l-0.2,0.1l-0.2,0.1l-0.1,0.1l0,0.1l-0.1,0.6l0,0.1l-0.3,0l-0.9-0.3l0,0l0.2-0.1l0.2-0.1l0.1-0.1l0-0.1l0.1-0.6l0-0.1l-0.1-0.1
			l-0.1-0.1l-0.2-0.1l-0.2-0.1l-0.2,0l-0.2,0l-0.2,0l-0.2,0.1l-0.2,0.1l-0.1,0.1l0,0.1l-0.1,0.6l-0.7-0.4l-1-0.9l-0.6-1l-0.1-0.5
			l0.1-0.3l0.3-0.4l0,0.3l0,0.1l0.1,0.1l0.1,0.1l0.2,0.1l0.2,0.1l0.2,0l0.2,0l0.2,0l0.2-0.1l0.2-0.1l0.1-0.1l0-0.1l0.1-0.6l0-0.1
			l-0.1-0.1l-0.1-0.1l-0.2-0.1l-0.2-0.1l-0.2,0l0,0l0.4-0.2l0.2-0.1l0,0.1l0.1,0.1l0.1,0.1l0.2,0.1l0.2,0.1l0.2,0l0.2,0l0.2,0
			l-0.4,0.4l-0.2,0.6l0.1,0.6l0.3,0.6l0.6,0.5l0.1,0.1l0.7,0.4l0.1,0l0.8,0.3l0.9,0.2l0.9,0l0.9-0.1l0.1,0l0.8-0.3l0.1,0
			L440.6,193.7z"/>
		<polygon fill="#394CA0" points="435.3,190 435.2,189.9 435.1,189.7 435.1,189.7 434.7,189.8 434.7,189.8 434.6,190.4 434.6,190.5 
			434.8,190.3 435.5,190.1 		"/>
		<polygon fill="#394CA0" points="439.4,190.4 439.6,190.5 440.3,190.9 440.3,191 440.3,190.9 440.4,190.4 439.8,190.2 439.8,190.2 
			439.7,190.3 439.5,190.4 		"/>
		<polygon fill="#394CA0" points="436.9,189.9 437.7,190 438.1,190 438.1,190 438,189.8 438.1,189.8 437.7,189.7 436.9,189.7 
			436.9,189.8 		"/>
		<g>
			<path fill="#484949" d="M429.2,196.9l0.2,0.1l2.1,1.2l2.5,0.9l0.1,0l2.6,0.5l2.7,0.1l0.1,0l2.6-0.3l2.3-0.7l0.2-0.1l0.2-0.1
				l1.9-1.1l0.2-0.2l0.2-0.2l1.3-1.5l0.2-0.2l0.1-0.3l0.6-1.7l0.1-0.3l0.1-0.3l0.2-1.7l0-0.3l0-0.3l-0.2-1.8l-0.1-0.3l-0.1-0.3
				l-1-1.7l-0.1-0.2l-0.2-0.2l-1.6-1.5l-0.2-0.1l-0.7-0.4l0.6-0.2l0.2-0.1l0.2-0.1l1.9-1.1l0.2-0.2l0.2-0.2l1.3-1.5l0.2-0.2l0.1-0.3
				l0.6-1.7l0.1-0.3l0.1-0.3l0.2-1.7l0-0.3l0-0.3l-0.2-1.8l-0.1-0.3l-0.1-0.3l-1-1.7l-0.1-0.2l-0.2-0.2l-1.6-1.5l-0.2-0.1l-2.1-1.2
				l-0.1-0.1l-2.5-0.9l-1.7-0.3l-0.1,0l-0.1,0.1l-0.2,0.1l-0.3,0.1l-0.3,0.1l-0.1,0l-0.4,0.2l-0.5,0.2l-0.6,0.3l-0.9,0.4l-0.3-0.5
				l-0.2-0.3l0-0.1l-0.1-0.2l-0.1-0.2l-0.1-0.2l-0.1-0.1l-0.1-0.1l0-0.1l0,0l-1.5,0.2l-0.1,0l-2.3,0.7l-0.2,0.1l-1.9,1.1l-0.2,0.2
				l-0.1,0.2l0,0l0.1,0.1l0.1,0.1l0.1,0.1l0.2,0.2l0.9,0.8l0.3,0.2l0.3,0.2l0.3,0.2l0,0l0.4,0.2l0.4,0.2l0.5,0.2l0.5,0.2l0.1,0
				l0.5,0.2l0.6,0.3l0.6,0.3l0.5,0.3l0.5,0.2l0.1,0.1l0,0l0.5-0.1l0.8-0.1l0.2,0.1l0.4,0.3l1.3,0.9l0.2,0.1l0.1,0.1l0,0l0,0l0,0l0,0
				l0.8,0.1l1.7,0.6l1.3,0.8l0.9,0.9l0,0l0.5,0.8l0,0l0.1,0.9l0-0.1l0-0.1l0-0.3l-0.2,0.7l-0.8,0.9l-1.1,0.7l-0.1,0l-0.1,0.5l0,0.1
				l0,0.1l0,0.2l0,0.2l0,0.2l0,0.2l0,0.2l0,0.2l0,0.1l-0.2-0.1l-0.4-0.2l-0.7-0.3l-0.5-0.2l-0.4-0.1l-1.1-0.2l0,0l-1.1-0.2l-1.6-0.1
				l-1.2,0l-2.6,0.3l-0.1,0l-2.3,0.7l0,0l-0.2,0.1l0,0l-0.1,0.1l-0.1,0.1l-0.1,0l0,0l-0.7,0.4l-0.9,0.5l-0.2,0.2l-0.2,0.2l-1.3,1.5
				l-0.2,0.2l-0.1,0.3l-0.6,1.7l-0.1,0.3l-0.1,0.3l-0.2,1.7l0,0.3l0,0.3l0.2,1.8l0.1,0.3l0.1,0.3l1,1.7l0.1,0.2l0.2,0.2l1.6,1.5
				L429.2,196.9z M441.2,190.7l0.9,0.5l0.4,0.2l0,0l0,0l0.2,0.2l0.2,0.2l0.2,0.2l0.1,0.1l0.1,0.1l0,0l0.1,0.1l0.5,0.8l0,0l0.1,0.9
				l0-0.1l0-0.1l0-0.4l-0.2,0.5l-0.8,0.9l-1.1,0.7l0,0l0,0l-0.1,0.1l-0.2,0.1l-0.2,0.1l-0.2,0l-0.2,0l-0.1,0l-0.4,0.1l-0.7,0.1l0,0
				l0,0.1l-0.1,0.1l-0.2,0.1l-0.2,0.1l-0.2,0l-0.2,0l0,0l-0.2,0l-0.2-0.1l-0.2-0.1l-0.1-0.1l-0.8,0l0,0l-0.2,0.1l0,0l-0.2,0l-0.2,0
				l-0.2,0l-0.2,0l-0.2-0.1l-0.2-0.1l-0.1-0.1l-0.1-0.1l0,0l-0.3,0l-0.9-0.3l-0.2,0l-0.2,0l-0.2,0l0,0l-0.2-0.1l-0.2-0.1l-0.1-0.1
				l-0.1-0.1l0-0.1l0,0l-0.7-0.4l-1-0.9l-0.6-1l-0.1-0.5l-0.1,0.4l0,0.1l0,0.1l0.3-0.9l0,0l0.3-0.4l0,0l0.1-0.1l0.2-0.2l0,0l0.2-0.1
				l0.2-0.1l0.2-0.1l0.4-0.2l0.2-0.1l1.2-0.4l0,0l0.1,0l0.2,0l0.1,0l0.1,0l0,0l0.5-0.1l0.7-0.1l1.1,0l0,0l0.7,0l0.4,0.1l0,0l1.4,0.3
				l0.3,0.1l0.6,0.2l0,0l0.1,0l0.1,0l0.2,0.1L441.2,190.7z"/>
			<polygon fill="#484949" points="428.9,170.8 429,170.8 429.1,170.9 429.5,171.3 429.9,171.6 429.7,171.6 429.6,171.7 
				429.5,171.7 429.5,171.6 429.3,171.5 428.9,171.2 428.8,171.1 428.7,171 428.6,170.9 428.6,170.9 428.7,170.9 428.8,170.7 
				428.8,170.7 			"/>
		</g>
		<g>
			<polygon points="246.8,302.8 246.8,302.8 246.8,302.8 246.9,303.1 247.1,303.1 247.1,303.2 247.4,303.2 247.8,303.2 248.2,303 
				248.6,302.6 248.9,302.3 249,302.2 249.5,301.9 249.8,301.5 249.9,301.5 250.2,301.3 250.4,301.1 250.4,301.1 250.5,301 
				250.5,301 252,300.4 252.2,300.3 252.3,300.3 252.5,300.3 252.5,300.5 252.5,300.8 252.8,300.7 252.9,300.6 253.2,300.6 
				253.2,300.8 253.4,301.4 253.7,301.9 254.1,302.4 254.4,302.7 254.8,302.9 255.1,303 255.4,302.8 255.6,302.6 255.8,302.3 
				256.2,303 256.5,303.9 256.6,304.4 255.7,304.1 252.1,303.4 251.9,303.4 251.4,303.4 251,303.3 250.4,303.3 248.4,303.2 
				248,303.2 246.4,303.4 246.4,303.4 			"/>
			<polygon fill="#F3F3F3" points="232,284.6 232.2,284.3 232.3,284.5 232.4,285.5 			"/>
			<polygon fill="#F3F3F3" points="424.1,178.1 424.1,178.2 424.1,178.3 424.2,178.3 423.9,178.3 423.8,178.3 423.7,178.2 
				423.7,178 423.7,177.8 423.7,177.4 423.7,177 423.7,176.6 423.7,176.2 423.8,175.9 423.8,175.6 423.9,175.4 423.9,175.3 
				423.9,175.3 424,175.3 424,175.3 424,175.4 424,175.5 424,175.6 424.1,175.9 424.2,176 424.4,176.3 424.5,176.4 424.6,176.5 
				424.6,176.7 424.2,177.1 424.2,177.1 424.2,177.4 424.1,177.8 424.1,177.8 424.1,178 			"/>
			<polygon fill="#F3F3F3" points="434.8,181.2 435,181.1 435.2,180.9 435.3,180.7 435.5,180.5 435.6,180.3 435.8,180.1 
				435.9,179.9 435.9,179.6 436,179.4 436,179.2 435.9,180.8 434.4,181.4 434.6,181.3 			"/>
			<polygon fill="#F3F3F3" points="427,177 427.1,177 427.5,176.7 427.7,176.6 427.9,176.4 428.3,176.1 428.4,175.9 428.9,175.4 
				429.3,174.8 429.4,174.7 429.6,174.2 429.7,173.9 429.7,173.7 429.8,173.2 429.9,173.1 429.9,172.9 429.9,172.8 430.1,173 
				430.2,173.5 430.2,174 430.1,174.6 429.8,175.2 429.5,175.8 429,176.3 428.5,176.8 427.9,177.1 427.4,177.2 427,177.2 
				426.7,177.1 426.8,177.1 			"/>
			<polygon fill="#F3F3F3" points="434.5,175.6 433.8,175.7 432.5,174.7 433.4,174.6 			"/>
			<polygon fill="#F3F3F3" points="394.1,173.9 394.1,174.2 394.1,174.3 393.8,174.3 393.8,174.2 393.8,173.9 393.8,173.8 
				393.9,173.7 393.9,173.6 393.9,173.5 394,173.5 394,173.6 			"/>
			<polygon fill="#F3F3F3" points="440.2,176.7 440.3,176 438.1,174.1 438,174.1 438.3,174 440.4,175.6 440,180.2 439.9,180.2 
				440.2,176.7 			"/>
			<polygon fill="#F3F3F3" points="405.9,174.7 405.9,174.7 405.9,174.7 			"/>
			<polygon fill="#F3F3F3" points="394.4,181.6 404.3,182.2 405,182.2 405,182.2 405.5,178.8 405.6,177.4 405.7,177.4 405.5,179.3 
				405.1,182.7 405.1,182.8 376.6,181 377.7,180.6 			"/>
			<polygon fill="#F3F3F3" points="429.7,182.6 430.1,182.9 430.2,183 430.3,183 429.6,183.4 			"/>
			<polygon fill="#F3F3F3" points="428.1,181.5 425.7,181.4 424.8,180.7 425.4,179.4 			"/>
			<polygon fill="#F3F3F3" points="443.4,178.8 443,178.1 442.7,177.8 442.4,177.5 441.4,176.9 440.4,176.5 440.3,176.5 
				440.4,175.2 440.5,175.3 441.6,175.6 442.5,176.2 443.2,176.8 443.6,177.5 443.6,178.2 443.5,179.5 443.4,178.8 			"/>
			<polygon fill="#6D6E71" points="242.5,318.1 241.8,316.8 241.6,315.5 241.9,314.7 242.7,313.9 244.1,313 246,312.4 248.4,312.1 
				250.9,312.2 253.3,312.7 255.6,313.5 257.3,314.5 258.5,315.6 259.1,316.6 259.2,317.5 258.7,318.7 257.7,319.8 256.2,320.7 
				254.3,321.3 252.1,321.6 249.8,321.5 247.6,321.1 245.5,320.3 243.8,319.3 			"/>
			<polygon fill="#F3F3F3" points="441.4,194.1 441.4,193.9 441.5,193.3 441.5,193.2 441.6,193.1 441.8,193 441.9,192.9 
				441.7,192.8 441.6,192.7 441.5,192.6 441.5,192.4 441.6,191.8 441.6,191.7 441.7,191.6 441.9,191.5 442.1,191.4 442.3,191.4 
				442.5,191.4 442.5,191.4 442.5,191.5 442.8,191.7 443,191.8 443.1,192 443.3,192.1 443.3,192.2 443.4,192.2 443.3,192.6 
				443.3,192.8 443.2,192.9 443,193 442.9,193 443,193.1 443.2,193.3 443.2,193.4 443.3,193.5 443.2,194.1 443.1,194.2 443,194.4 
				442.9,194.5 442.7,194.5 442.5,194.5 442.2,194.5 442,194.5 441.8,194.4 441.6,194.3 441.5,194.2 			"/>
			<polygon fill="#F3F3F3" points="440,195.3 440,195.2 440.1,194.6 440.1,194.4 440.2,194.3 440.4,194.2 440.6,194.2 440.8,194.1 
				441.1,194.1 441.3,194.2 441.5,194.3 441.7,194.4 441.8,194.5 441.9,194.6 441.9,194.8 441.8,195.4 441.8,195.4 441.8,195.5 
				441.7,195.6 441.5,195.7 441.3,195.8 441.1,195.8 440.9,195.8 440.8,195.8 440.6,195.7 440.4,195.7 440.3,195.6 440.1,195.4 			
				"/>
			<polygon fill="#F3F3F3" points="435.5,195.8 435.5,195.8 435.5,195.6 435.6,195 435.6,194.9 435.7,194.8 435.9,194.7 
				436.1,194.6 436.3,194.6 436.5,194.6 436.8,194.7 437,194.7 437.1,194.8 437.3,195 437.3,195.1 437.4,195.2 437.3,195.8 
				437.3,196 437.2,196.1 437.1,196.1 437,196.2 437,196.2 436.8,196.2 436.6,196.3 436.3,196.3 436.1,196.2 435.9,196.1 435.7,196 
				435.6,195.9 			"/>
			<polygon fill="#F3F3F3" points="436.9,189.9 437.7,190 438.1,190 438.1,190 438,189.8 438.1,189.8 438.1,189.8 439.5,190.1 
				439.8,190.2 439.8,190.2 439.7,190.3 439.5,190.4 439.4,190.4 439.6,190.5 440.3,190.9 440.3,191 440.3,190.9 440.4,190.4 
				440.4,190.4 440.5,190.4 440.7,190.5 440.8,190.5 441.2,190.7 442.1,191.2 442.1,191.2 442,191.4 441.8,191.4 441.6,191.5 
				441.4,191.5 441.2,191.5 441,191.5 440.9,191.5 441.2,192 441.3,192.6 441.1,193.2 440.6,193.7 440,194.1 439.8,194.1 439,194.4 
				438.9,194.4 438.1,194.5 437.1,194.5 436.3,194.3 435.4,194 435.3,194 434.6,193.5 434.5,193.5 433.9,192.9 433.6,192.4 
				433.5,191.8 433.7,191.2 434.1,190.8 433.9,190.8 433.7,190.8 433.4,190.8 433.2,190.7 433,190.6 432.9,190.5 432.8,190.3 
				432.8,190.2 434.1,189.9 434.1,189.9 434.2,189.8 434.4,189.8 434.6,189.8 434.6,189.8 434.7,189.8 434.7,189.8 434.6,190.4 
				434.6,190.5 434.8,190.3 435.5,190.1 435.3,190 435.2,189.9 435.1,189.7 435.1,189.7 435.8,189.6 436.9,189.7 436.9,189.7 
				436.9,189.8 			"/>
			<polygon fill="#F3F3F3" points="433,194.9 433,194.8 433,194.8 433.1,194.2 433.1,194.1 433.2,193.9 433.4,193.8 433.6,193.8 
				433.8,193.8 434.1,193.8 434.3,193.8 434.5,193.9 434.7,194 434.8,194.1 434.9,194.2 434.9,194.4 434.8,195 434.8,195.1 
				434.7,195.2 434.5,195.3 434.3,195.4 434.3,195.4 434.1,195.4 433.9,195.4 433.7,195.4 433.6,195.4 433.4,195.3 433.3,195.2 
				433.1,195 			"/>
			<polygon fill="#F3F3F3" points="433,191 433,191.2 433,191.8 432.9,191.9 432.8,192 432.7,192.1 432.5,192.2 432.3,192.2 
				432,192.2 431.8,192.1 431.6,192.1 431.4,192 431.3,191.8 431.2,191.7 431.2,191.6 431.2,191.3 431.2,191.3 431.4,191.1 
				431.5,191 431.5,191 431.7,190.8 432,190.7 432.2,190.6 432.2,190.6 432.4,190.6 432.6,190.7 432.8,190.8 433,190.9 			"/>
			<polygon fill="#F3F3F3" points="437.9,196.1 437.9,195.9 437.8,195.8 437.9,195.2 438,195.1 438.1,195 438.2,194.9 438.4,194.8 
				438.6,194.8 438.9,194.8 439.1,194.8 439.3,194.9 439.5,195 439.6,195.1 439.7,195.3 439.7,195.4 439.6,196 439.6,196 
				439.6,196.1 439.5,196.2 439.3,196.3 439.1,196.4 438.9,196.4 438.7,196.4 438.7,196.4 438.5,196.4 438.2,196.3 438.1,196.2 
				437.9,196.1 			"/>
			<polygon fill="#F3F3F3" points="432.2,192.2 432.4,192.2 432.7,192.3 432.9,192.4 433.1,192.5 433.2,192.6 433.3,192.7 
				433.3,192.9 433.2,193.5 433.2,193.6 433.1,193.7 432.9,193.8 432.7,193.9 432.5,193.9 432.3,193.9 432,193.8 431.8,193.8 
				431.6,193.6 431.5,193.5 431.4,193.4 431.4,193.3 431.5,192.7 431.5,192.5 431.6,192.4 431.8,192.3 432,192.3 			"/>
		</g>
	</g>
</g>
<path fill="#939598" d="M60.3,312.8l0.1,0.2l1.6,4.4l2.2,4.2l0.1,0.2l2.6,3.4l0.2,0.3l2.7,2.4l1.2-0.5l0.3-0.4l25.6-9.5l-0.6,0
	l-4.9-0.4l-8.2-0.6l-3.8-0.3l-5.1-0.4l30.6-12.2l0.1,4.8l0.1,4.8l0.2,4.8l4.7,0.3l45.5-22.2l7.1-1.9l21.3-6.2l7.2-2.7l7.2-2.6
	l8.6-3.3l5.9-2.2l7.3-3l7.3-3.1l7.3-3.2l0,0l0,0l7.3-3.4l2.9-1.5l2.1-1.1l9,3.3l0.3-0.1l0.5-0.2l0.4-0.2l0.3-0.1l0.1-0.1l27.8-12.1
	l2.3-1l-0.3-1l-3.1-9.6l0.9-0.5l0.3-0.2l0.4-0.2l7.6-5l0.7-0.4l6.3-4.1l14.5-10.2l14.4-10.8l14.3-11.3l5.2-4.4l1.6-1.4l4.8-4.1
	l2.5-2.1l4.6-4.1l9.3-8.3l13.6-14.4l0.1,1.5l3-3l-2.2,0.7l-0.9,0.3l-2.1,0.7l-2.1,0.8l-1.5,0.5l-1.6,0.6l-3,1.1L154.9,273
	L60.3,312.8z"/>
<path fill="#939598" d="M339.6,133.1l1.1-0.7l3.9-2.5l0.4-0.2l1.7-1l2.1-1.2l1.6-0.9l2.7-1.6l2-1.1l-1.6,0l-13.1,0.6l-13.4,1.4
	l-13.6,2.1l-13.8,2.9l-14,3.6l-14.2,4.4l-14.4,5.1l-7.3,3l0,0l0,0l-7.3,3.1l-7.3,3.3l-7.3,3.4l-6,2.9l-8.7,4.3l-7.3,3.8l-7.3,3.7
	l-22.1,12.8l-7.3,4.4l-14.1,6.2l-4.5,1.9l11.1,4.3L339.6,133.1z"/>
</svg>
